<?xml version="1.0" encoding="UTF-8" standalone="no"?>
<!DOCTYPE svg PUBLIC "-//W3C//DTD SVG 1.1//EN"
 "http://www.w3.org/Graphics/SVG/1.1/DTD/svg11.dtd">
<!-- Generated by graphviz version 14.0.2 (20251019.1705)
 -->
<!-- Title: Dependencies Pages: 1 -->
<svg width="3515pt" height="517pt"
 viewBox="0.00 0.00 3515.00 517.00" xmlns="http://www.w3.org/2000/svg" xmlns:xlink="http://www.w3.org/1999/xlink">
<g id="graph0" class="graph" transform="scale(1 1) rotate(0) translate(4 512.5)">
<title>Dependencies</title>
<polygon fill="white" stroke="none" points="-4,4 -4,-512.5 3511.25,-512.5 3511.25,4 -4,4"/>
<g id="clust1" class="cluster">
<title>cluster_legend</title>
<polygon fill="#f8fafc" stroke="black" points="3170.25,-424 3170.25,-500.5 3499.25,-500.5 3499.25,-424 3170.25,-424"/>
<text xml:space="preserve" text-anchor="middle" x="3334.75" y="-483.2" font-family="Times,serif" font-size="14.00">Legend</text>
</g>
<!-- thm:main -->
<g id="node1" class="node">
<title>thm:main</title>
<path fill="#93c5fd" stroke="black" d="M1011.88,-36C1011.88,-36 840.62,-36 840.62,-36 834.62,-36 828.62,-30 828.62,-24 828.62,-24 828.62,-12 828.62,-12 828.62,-6 834.62,0 840.62,0 840.62,0 1011.88,0 1011.88,0 1017.88,0 1023.88,-6 1023.88,-12 1023.88,-12 1023.88,-24 1023.88,-24 1023.88,-30 1017.88,-36 1011.88,-36"/>
<text xml:space="preserve" text-anchor="middle" x="926.25" y="-12.57" font-family="Arial" font-size="14.00">GG5 Infinite at Critical Radius</text>
</g>
<!-- def:r_crit -->
<g id="node2" class="node">
<title>def:r_crit</title>
<path fill="#fde047" stroke="black" d="M1650.75,-468C1650.75,-468 1571.75,-468 1571.75,-468 1565.75,-468 1559.75,-462 1559.75,-456 1559.75,-456 1559.75,-444 1559.75,-444 1559.75,-438 1565.75,-432 1571.75,-432 1571.75,-432 1650.75,-432 1650.75,-432 1656.75,-432 1662.75,-438 1662.75,-444 1662.75,-444 1662.75,-456 1662.75,-456 1662.75,-462 1656.75,-468 1650.75,-468"/>
<text xml:space="preserve" text-anchor="middle" x="1611.25" y="-444.57" font-family="Arial" font-size="14.00">Critical Radius</text>
</g>
<!-- def:r_crit&#45;&gt;thm:main -->
<g id="edge3" class="edge">
<title>def:r_crit&#45;&gt;thm:main</title>
<path fill="none" stroke="#64748b" d="M1663.21,-440.18C1688.9,-432.91 1717.67,-419.75 1733.25,-396 1742.02,-382.62 1744.12,-371.74 1733.25,-360 1662.85,-283.94 1338.65,-400.06 1268.25,-324 1257.38,-312.26 1257.33,-299.7 1268.25,-288 1347.59,-203 1710.91,-337 1790.25,-252 1801.17,-240.3 1796.05,-230.91 1790.25,-216 1774.51,-175.54 1762.51,-164.51 1724.25,-144 1607.07,-81.18 1225.64,-42.84 1035.73,-27.18"/>
<polygon fill="#64748b" stroke="#64748b" points="1036.1,-23.7 1025.85,-26.37 1035.53,-30.68 1036.1,-23.7"/>
</g>
<!-- lem:r_crit_pos -->
<g id="node3" class="node">
<title>lem:r_crit_pos</title>
<path fill="#86efac" stroke="black" d="M1257.25,-396C1257.25,-396 1121.25,-396 1121.25,-396 1115.25,-396 1109.25,-390 1109.25,-384 1109.25,-384 1109.25,-372 1109.25,-372 1109.25,-366 1115.25,-360 1121.25,-360 1121.25,-360 1257.25,-360 1257.25,-360 1263.25,-360 1269.25,-366 1269.25,-372 1269.25,-372 1269.25,-384 1269.25,-384 1269.25,-390 1263.25,-396 1257.25,-396"/>
<text xml:space="preserve" text-anchor="middle" x="1189.25" y="-372.57" font-family="Arial" font-size="14.00">Critical Radius Positivity</text>
</g>
<!-- def:r_crit&#45;&gt;lem:r_crit_pos -->
<g id="edge4" class="edge">
<title>def:r_crit&#45;&gt;lem:r_crit_pos</title>
<path fill="none" stroke="#64748b" d="M1559.26,-441.23C1495.9,-431.66 1385.32,-414.58 1280.4,-396.35"/>
<polygon fill="#64748b" stroke="#64748b" points="1281.23,-392.94 1270.77,-394.67 1280.02,-399.84 1281.23,-392.94"/>
</g>
<!-- lem:r_crit_approx -->
<g id="node4" class="node">
<title>lem:r_crit_approx</title>
<path fill="#86efac" stroke="black" d="M1468.75,-396C1468.75,-396 1299.75,-396 1299.75,-396 1293.75,-396 1287.75,-390 1287.75,-384 1287.75,-384 1287.75,-372 1287.75,-372 1287.75,-366 1293.75,-360 1299.75,-360 1299.75,-360 1468.75,-360 1468.75,-360 1474.75,-360 1480.75,-366 1480.75,-372 1480.75,-372 1480.75,-384 1480.75,-384 1480.75,-390 1474.75,-396 1468.75,-396"/>
<text xml:space="preserve" text-anchor="middle" x="1384.25" y="-372.57" font-family="Arial" font-size="14.00">Critical Radius Approximation</text>
</g>
<!-- def:r_crit&#45;&gt;lem:r_crit_approx -->
<g id="edge5" class="edge">
<title>def:r_crit&#45;&gt;lem:r_crit_approx</title>
<path fill="none" stroke="#64748b" d="M1559.46,-433.03C1527.58,-423.2 1486.36,-410.49 1451.92,-399.87"/>
<polygon fill="#64748b" stroke="#64748b" points="1453.03,-396.55 1442.44,-396.94 1450.97,-403.24 1453.03,-396.55"/>
</g>
<!-- lem:r_crit_minimal_poly -->
<g id="node5" class="node">
<title>lem:r_crit_minimal_poly</title>
<path fill="#86efac" stroke="black" d="M1711.88,-396C1711.88,-396 1510.62,-396 1510.62,-396 1504.62,-396 1498.62,-390 1498.62,-384 1498.62,-384 1498.62,-372 1498.62,-372 1498.62,-366 1504.62,-360 1510.62,-360 1510.62,-360 1711.88,-360 1711.88,-360 1717.88,-360 1723.88,-366 1723.88,-372 1723.88,-372 1723.88,-384 1723.88,-384 1723.88,-390 1717.88,-396 1711.88,-396"/>
<text xml:space="preserve" text-anchor="middle" x="1611.25" y="-372.57" font-family="Arial" font-size="14.00">Critical Radius Minimal Polynomial</text>
</g>
<!-- def:r_crit&#45;&gt;lem:r_crit_minimal_poly -->
<g id="edge6" class="edge">
<title>def:r_crit&#45;&gt;lem:r_crit_minimal_poly</title>
<path fill="none" stroke="#64748b" d="M1611.25,-431.7C1611.25,-424.41 1611.25,-415.73 1611.25,-407.54"/>
<polygon fill="#64748b" stroke="#64748b" points="1614.75,-407.62 1611.25,-397.62 1607.75,-407.62 1614.75,-407.62"/>
</g>
<!-- def:E -->
<g id="node12" class="node">
<title>def:E</title>
<path fill="#fde047" stroke="black" d="M2825,-396C2825,-396 2789.5,-396 2789.5,-396 2783.5,-396 2777.5,-390 2777.5,-384 2777.5,-384 2777.5,-372 2777.5,-372 2777.5,-366 2783.5,-360 2789.5,-360 2789.5,-360 2825,-360 2825,-360 2831,-360 2837,-366 2837,-372 2837,-372 2837,-384 2837,-384 2837,-390 2831,-396 2825,-396"/>
<text xml:space="preserve" text-anchor="middle" x="2807.25" y="-372.57" font-family="Arial" font-size="14.00">Point E</text>
</g>
<!-- def:r_crit&#45;&gt;def:E -->
<g id="edge15" class="edge">
<title>def:r_crit&#45;&gt;def:E</title>
<path fill="none" stroke="#64748b" d="M1663.02,-445.97C1863.2,-434.25 2584.34,-392.05 2765.65,-381.43"/>
<polygon fill="#64748b" stroke="#64748b" points="2765.76,-384.93 2775.53,-380.86 2765.35,-377.95 2765.76,-384.93"/>
</g>
<!-- lem:E_on_left_disk -->
<g id="node16" class="node">
<title>lem:E_on_left_disk</title>
<path fill="#86efac" stroke="black" d="M2434,-324C2434,-324 2296.5,-324 2296.5,-324 2290.5,-324 2284.5,-318 2284.5,-312 2284.5,-312 2284.5,-300 2284.5,-300 2284.5,-294 2290.5,-288 2296.5,-288 2296.5,-288 2434,-288 2434,-288 2440,-288 2446,-294 2446,-300 2446,-300 2446,-312 2446,-312 2446,-318 2440,-324 2434,-324"/>
<text xml:space="preserve" text-anchor="middle" x="2365.25" y="-300.57" font-family="Arial" font-size="14.00">E on Left Disk Boundary</text>
</g>
<!-- def:r_crit&#45;&gt;lem:E_on_left_disk -->
<g id="edge24" class="edge">
<title>def:r_crit&#45;&gt;lem:E_on_left_disk</title>
<path fill="none" stroke="#64748b" d="M1662.99,-449.2C1798.67,-449.04 2161.74,-444.01 2270.25,-396 2301.22,-382.3 2328.48,-354.15 2345.76,-333.16"/>
<polygon fill="#64748b" stroke="#64748b" points="2348.32,-335.56 2351.82,-325.56 2342.85,-331.2 2348.32,-335.56"/>
</g>
<!-- lem:E_in_right_disk -->
<g id="node17" class="node">
<title>lem:E_in_right_disk</title>
<path fill="#86efac" stroke="black" d="M2594.5,-324C2594.5,-324 2514,-324 2514,-324 2508,-324 2502,-318 2502,-312 2502,-312 2502,-300 2502,-300 2502,-294 2508,-288 2514,-288 2514,-288 2594.5,-288 2594.5,-288 2600.5,-288 2606.5,-294 2606.5,-300 2606.5,-300 2606.5,-312 2606.5,-312 2606.5,-318 2600.5,-324 2594.5,-324"/>
<text xml:space="preserve" text-anchor="middle" x="2554.25" y="-300.57" font-family="Arial" font-size="14.00">E in Right Disk</text>
</g>
<!-- def:r_crit&#45;&gt;lem:E_in_right_disk -->
<g id="edge26" class="edge">
<title>def:r_crit&#45;&gt;lem:E_in_right_disk</title>
<path fill="none" stroke="#64748b" d="M1663.09,-449.82C1779.74,-450.63 2071.24,-446.89 2308.25,-396 2379.05,-380.8 2457.08,-350.01 2505.88,-328.95"/>
<polygon fill="#64748b" stroke="#64748b" points="2507.27,-332.15 2515.04,-324.95 2504.48,-325.74 2507.27,-332.15"/>
</g>
<!-- lem:Eprime_on_right_disk -->
<g id="node18" class="node">
<title>lem:Eprime_on_right_disk</title>
<path fill="#86efac" stroke="black" d="M2309,-252C2309,-252 2159.5,-252 2159.5,-252 2153.5,-252 2147.5,-246 2147.5,-240 2147.5,-240 2147.5,-228 2147.5,-228 2147.5,-222 2153.5,-216 2159.5,-216 2159.5,-216 2309,-216 2309,-216 2315,-216 2321,-222 2321,-228 2321,-228 2321,-240 2321,-240 2321,-246 2315,-252 2309,-252"/>
<text xml:space="preserve" text-anchor="middle" x="2234.25" y="-228.57" font-family="Arial" font-size="14.00">E&#39; on Right Disk Boundary</text>
</g>
<!-- def:r_crit&#45;&gt;lem:Eprime_on_right_disk -->
<g id="edge28" class="edge">
<title>def:r_crit&#45;&gt;lem:Eprime_on_right_disk</title>
<path fill="none" stroke="#64748b" d="M1663.18,-449.02C1780.6,-448.23 2062.63,-441.52 2144.25,-396 2193.92,-368.29 2217.99,-301.53 2228.08,-263.24"/>
<polygon fill="#64748b" stroke="#64748b" points="2231.4,-264.37 2230.41,-253.82 2224.61,-262.69 2231.4,-264.37"/>
</g>
<!-- lem:Eprime_in_left_disk -->
<g id="node19" class="node">
<title>lem:Eprime_in_left_disk</title>
<path fill="#86efac" stroke="black" d="M2430.5,-252C2430.5,-252 2356,-252 2356,-252 2350,-252 2344,-246 2344,-240 2344,-240 2344,-228 2344,-228 2344,-222 2350,-216 2356,-216 2356,-216 2430.5,-216 2430.5,-216 2436.5,-216 2442.5,-222 2442.5,-228 2442.5,-228 2442.5,-240 2442.5,-240 2442.5,-246 2436.5,-252 2430.5,-252"/>
<text xml:space="preserve" text-anchor="middle" x="2393.25" y="-228.57" font-family="Arial" font-size="14.00">E&#39; in Left Disk</text>
</g>
<!-- def:r_crit&#45;&gt;lem:Eprime_in_left_disk -->
<g id="edge30" class="edge">
<title>def:r_crit&#45;&gt;lem:Eprime_in_left_disk</title>
<path fill="none" stroke="#64748b" d="M1663.02,-448.92C1785.35,-447.98 2088.72,-441.04 2178.25,-396 2235.89,-367.01 2223.14,-326.04 2275.25,-288 2292.7,-275.26 2313.69,-264.62 2333.11,-256.29"/>
<polygon fill="#64748b" stroke="#64748b" points="2334.4,-259.54 2342.3,-252.48 2331.72,-253.07 2334.4,-259.54"/>
</g>
<!-- def:gg5_critical -->
<g id="node29" class="node">
<title>def:gg5_critical</title>
<path fill="#fde047" stroke="black" d="M128.5,-324C128.5,-324 12,-324 12,-324 6,-324 0,-318 0,-312 0,-312 0,-300 0,-300 0,-294 6,-288 12,-288 12,-288 128.5,-288 128.5,-288 134.5,-288 140.5,-294 140.5,-300 140.5,-300 140.5,-312 140.5,-312 140.5,-318 134.5,-324 128.5,-324"/>
<text xml:space="preserve" text-anchor="middle" x="70.25" y="-300.57" font-family="Arial" font-size="14.00">GG5 Critical System</text>
</g>
<!-- def:r_crit&#45;&gt;def:gg5_critical -->
<g id="edge55" class="edge">
<title>def:r_crit&#45;&gt;def:gg5_critical</title>
<path fill="none" stroke="#64748b" d="M1559.43,-447.06C1324.07,-438.2 365.81,-401.84 335.25,-396 287.62,-386.9 278.19,-375.54 232.25,-360 200.29,-349.19 164.67,-337.5 134.99,-327.85"/>
<polygon fill="#64748b" stroke="#64748b" points="136.37,-324.62 125.78,-324.86 134.21,-331.28 136.37,-324.62"/>
</g>
<!-- ax:lens_preserved -->
<g id="node30" class="node">
<title>ax:lens_preserved</title>
<path fill="#fca5a5" stroke="black" d="M2123.38,-396C2123.38,-396 1949.12,-396 1949.12,-396 1943.12,-396 1937.12,-390 1937.12,-384 1937.12,-384 1937.12,-372 1937.12,-372 1937.12,-366 1943.12,-360 1949.12,-360 1949.12,-360 2123.38,-360 2123.38,-360 2129.38,-360 2135.38,-366 2135.38,-372 2135.38,-372 2135.38,-384 2135.38,-384 2135.38,-390 2129.38,-396 2123.38,-396"/>
<text xml:space="preserve" text-anchor="middle" x="2036.25" y="-372.57" font-family="Arial" font-size="14.00">Lens Intersection Preservation</text>
</g>
<!-- def:r_crit&#45;&gt;ax:lens_preserved -->
<g id="edge57" class="edge">
<title>def:r_crit&#45;&gt;ax:lens_preserved</title>
<path fill="none" stroke="#64748b" d="M1662.94,-440.49C1727.83,-429.8 1840.9,-411.18 1925.64,-397.22"/>
<polygon fill="#64748b" stroke="#64748b" points="1926.09,-400.69 1935.38,-395.61 1924.95,-393.79 1926.09,-400.69"/>
</g>
<!-- ax:map1_z1 -->
<g id="node38" class="node">
<title>ax:map1_z1</title>
<path fill="#fca5a5" stroke="black" d="M984.88,-252C984.88,-252 837.62,-252 837.62,-252 831.62,-252 825.62,-246 825.62,-240 825.62,-240 825.62,-228 825.62,-228 825.62,-222 831.62,-216 837.62,-216 837.62,-216 984.88,-216 984.88,-216 990.88,-216 996.88,-222 996.88,-228 996.88,-228 996.88,-240 996.88,-240 996.88,-246 990.88,-252 984.88,-252"/>
<text xml:space="preserve" text-anchor="middle" x="911.25" y="-228.57" font-family="Arial" font-size="14.00">Map1 Disk Membership 1</text>
</g>
<!-- def:r_crit&#45;&gt;ax:map1_z1 -->
<g id="edge67" class="edge">
<title>def:r_crit&#45;&gt;ax:map1_z1</title>
<path fill="none" stroke="#64748b" d="M1559.25,-449.77C1433.27,-450.77 1115.43,-447.93 1025.25,-396 972.57,-365.67 938.14,-300.01 921.98,-262.59"/>
<polygon fill="#64748b" stroke="#64748b" points="925.39,-261.67 918.31,-253.79 918.93,-264.36 925.39,-261.67"/>
</g>
<!-- ax:map1_z2 -->
<g id="node39" class="node">
<title>ax:map1_z2</title>
<path fill="#fca5a5" stroke="black" d="M1590.88,-252C1590.88,-252 1443.62,-252 1443.62,-252 1437.62,-252 1431.62,-246 1431.62,-240 1431.62,-240 1431.62,-228 1431.62,-228 1431.62,-222 1437.62,-216 1443.62,-216 1443.62,-216 1590.88,-216 1590.88,-216 1596.88,-216 1602.88,-222 1602.88,-228 1602.88,-228 1602.88,-240 1602.88,-240 1602.88,-246 1596.88,-252 1590.88,-252"/>
<text xml:space="preserve" text-anchor="middle" x="1517.25" y="-228.57" font-family="Arial" font-size="14.00">Map1 Disk Membership 2</text>
</g>
<!-- def:r_crit&#45;&gt;ax:map1_z2 -->
<g id="edge69" class="edge">
<title>def:r_crit&#45;&gt;ax:map1_z2</title>
<path fill="none" stroke="#64748b" d="M1559.43,-447.48C1435.61,-443.31 1130.64,-429.7 1100.25,-396 1089.54,-384.12 1091.23,-373.22 1100.25,-360 1125,-323.73 1154.48,-346.39 1192.25,-324 1213.69,-311.29 1212.71,-298.65 1235.25,-288 1239.58,-285.95 1340.45,-267.24 1420.32,-252.63"/>
<polygon fill="#64748b" stroke="#64748b" points="1420.75,-256.11 1429.95,-250.87 1419.49,-249.22 1420.75,-256.11"/>
</g>
<!-- ax:map1_z3 -->
<g id="node40" class="node">
<title>ax:map1_z3</title>
<path fill="#fca5a5" stroke="black" d="M1401.88,-252C1401.88,-252 1254.62,-252 1254.62,-252 1248.62,-252 1242.62,-246 1242.62,-240 1242.62,-240 1242.62,-228 1242.62,-228 1242.62,-222 1248.62,-216 1254.62,-216 1254.62,-216 1401.88,-216 1401.88,-216 1407.88,-216 1413.88,-222 1413.88,-228 1413.88,-228 1413.88,-240 1413.88,-240 1413.88,-246 1407.88,-252 1401.88,-252"/>
<text xml:space="preserve" text-anchor="middle" x="1328.25" y="-228.57" font-family="Arial" font-size="14.00">Map1 Disk Membership 3</text>
</g>
<!-- def:r_crit&#45;&gt;ax:map1_z3 -->
<g id="edge71" class="edge">
<title>def:r_crit&#45;&gt;ax:map1_z3</title>
<path fill="none" stroke="#64748b" d="M1559.48,-446.82C1434.92,-441.13 1126,-424.32 1089.25,-396 1050.06,-365.8 1030.87,-326.25 1062.25,-288 1073.25,-274.59 1159.73,-259.05 1231.15,-248.29"/>
<polygon fill="#64748b" stroke="#64748b" points="1231.59,-251.76 1240.97,-246.82 1230.56,-244.83 1231.59,-251.76"/>
</g>
<!-- ax:map1_z4 -->
<g id="node41" class="node">
<title>ax:map1_z4</title>
<path fill="#fca5a5" stroke="black" d="M1173.88,-252C1173.88,-252 1026.62,-252 1026.62,-252 1020.62,-252 1014.62,-246 1014.62,-240 1014.62,-240 1014.62,-228 1014.62,-228 1014.62,-222 1020.62,-216 1026.62,-216 1026.62,-216 1173.88,-216 1173.88,-216 1179.88,-216 1185.88,-222 1185.88,-228 1185.88,-228 1185.88,-240 1185.88,-240 1185.88,-246 1179.88,-252 1173.88,-252"/>
<text xml:space="preserve" text-anchor="middle" x="1100.25" y="-228.57" font-family="Arial" font-size="14.00">Map1 Disk Membership 4</text>
</g>
<!-- def:r_crit&#45;&gt;ax:map1_z4 -->
<g id="edge73" class="edge">
<title>def:r_crit&#45;&gt;ax:map1_z4</title>
<path fill="none" stroke="#64748b" d="M1559.25,-447.71C1427.46,-443.95 1088.23,-430.92 1052.25,-396 1017.69,-362.45 1024.01,-332.16 1043.25,-288 1047.95,-277.22 1056.03,-267.65 1064.66,-259.71"/>
<polygon fill="#64748b" stroke="#64748b" points="1066.85,-262.44 1072.22,-253.3 1062.33,-257.1 1066.85,-262.44"/>
</g>
<!-- def:zeta5 -->
<g id="node6" class="node">
<title>def:zeta5</title>
<path fill="#fde047" stroke="black" d="M3148.25,-468C3148.25,-468 3048.25,-468 3048.25,-468 3042.25,-468 3036.25,-462 3036.25,-456 3036.25,-456 3036.25,-444 3036.25,-444 3036.25,-438 3042.25,-432 3048.25,-432 3048.25,-432 3148.25,-432 3148.25,-432 3154.25,-432 3160.25,-438 3160.25,-444 3160.25,-444 3160.25,-456 3160.25,-456 3160.25,-462 3154.25,-468 3148.25,-468"/>
<text xml:space="preserve" text-anchor="middle" x="3098.25" y="-444.57" font-family="Arial" font-size="14.00">Fifth Root of Unity</text>
</g>
<!-- lem:zeta5_pow_five -->
<g id="node7" class="node">
<title>lem:zeta5_pow_five</title>
<path fill="#86efac" stroke="black" d="M3217.38,-396C3217.38,-396 3157.12,-396 3157.12,-396 3151.12,-396 3145.12,-390 3145.12,-384 3145.12,-384 3145.12,-372 3145.12,-372 3145.12,-366 3151.12,-360 3157.12,-360 3157.12,-360 3217.38,-360 3217.38,-360 3223.38,-360 3229.38,-366 3229.38,-372 3229.38,-372 3229.38,-384 3229.38,-384 3229.38,-390 3223.38,-396 3217.38,-396"/>
<text xml:space="preserve" text-anchor="middle" x="3187.25" y="-372.57" font-family="Arial" font-size="14.00">Fifth Power</text>
</g>
<!-- def:zeta5&#45;&gt;lem:zeta5_pow_five -->
<g id="edge7" class="edge">
<title>def:zeta5&#45;&gt;lem:zeta5_pow_five</title>
<path fill="none" stroke="#64748b" d="M3120.25,-431.7C3131.16,-423.11 3144.52,-412.61 3156.43,-403.24"/>
<polygon fill="#64748b" stroke="#64748b" points="3158.31,-406.22 3164,-397.28 3153.98,-400.71 3158.31,-406.22"/>
</g>
<!-- lem:zeta5_primitive -->
<g id="node8" class="node">
<title>lem:zeta5_primitive</title>
<path fill="#86efac" stroke="black" d="M3225.62,-324C3225.62,-324 3148.88,-324 3148.88,-324 3142.88,-324 3136.88,-318 3136.88,-312 3136.88,-312 3136.88,-300 3136.88,-300 3136.88,-294 3142.88,-288 3148.88,-288 3148.88,-288 3225.62,-288 3225.62,-288 3231.62,-288 3237.62,-294 3237.62,-300 3237.62,-300 3237.62,-312 3237.62,-312 3237.62,-318 3231.62,-324 3225.62,-324"/>
<text xml:space="preserve" text-anchor="middle" x="3187.25" y="-300.57" font-family="Arial" font-size="14.00">Primitive Root</text>
</g>
<!-- def:zeta5&#45;&gt;lem:zeta5_primitive -->
<g id="edge8" class="edge">
<title>def:zeta5&#45;&gt;lem:zeta5_primitive</title>
<path fill="none" stroke="#64748b" d="M3103.55,-431.68C3109.72,-413.04 3121.04,-382.97 3136.25,-360 3142.81,-350.1 3151.33,-340.4 3159.53,-332.06"/>
<polygon fill="#64748b" stroke="#64748b" points="3161.76,-334.77 3166.45,-325.27 3156.86,-329.77 3161.76,-334.77"/>
</g>
<!-- lem:zeta5_abs -->
<g id="node9" class="node">
<title>lem:zeta5_abs</title>
<path fill="#86efac" stroke="black" d="M3313,-396C3313,-396 3259.5,-396 3259.5,-396 3253.5,-396 3247.5,-390 3247.5,-384 3247.5,-384 3247.5,-372 3247.5,-372 3247.5,-366 3253.5,-360 3259.5,-360 3259.5,-360 3313,-360 3313,-360 3319,-360 3325,-366 3325,-372 3325,-372 3325,-384 3325,-384 3325,-390 3319,-396 3313,-396"/>
<text xml:space="preserve" text-anchor="middle" x="3286.25" y="-372.57" font-family="Arial" font-size="14.00">Unit Norm</text>
</g>
<!-- def:zeta5&#45;&gt;lem:zeta5_abs -->
<g id="edge10" class="edge">
<title>def:zeta5&#45;&gt;lem:zeta5_abs</title>
<path fill="none" stroke="#64748b" d="M3145.21,-431.52C3173.08,-421.14 3208.38,-407.99 3236.7,-397.45"/>
<polygon fill="#64748b" stroke="#64748b" points="3237.61,-400.85 3245.76,-394.08 3235.16,-394.29 3237.61,-400.85"/>
</g>
<!-- lem:cyclotomic5_sum -->
<g id="node10" class="node">
<title>lem:cyclotomic5_sum</title>
<path fill="#86efac" stroke="black" d="M3421.75,-252C3421.75,-252 3330.75,-252 3330.75,-252 3324.75,-252 3318.75,-246 3318.75,-240 3318.75,-240 3318.75,-228 3318.75,-228 3318.75,-222 3324.75,-216 3330.75,-216 3330.75,-216 3421.75,-216 3421.75,-216 3427.75,-216 3433.75,-222 3433.75,-228 3433.75,-228 3433.75,-240 3433.75,-240 3433.75,-246 3427.75,-252 3421.75,-252"/>
<text xml:space="preserve" text-anchor="middle" x="3376.25" y="-228.57" font-family="Arial" font-size="14.00">Cyclotomic Sum</text>
</g>
<!-- def:zeta5&#45;&gt;lem:cyclotomic5_sum -->
<g id="edge11" class="edge">
<title>def:zeta5&#45;&gt;lem:cyclotomic5_sum</title>
<path fill="none" stroke="#64748b" d="M3140.55,-431.56C3148.95,-428.63 3157.79,-425.93 3166.25,-424 3229.59,-409.56 3413.57,-444.09 3457.25,-396 3494.45,-355.05 3441.62,-293.86 3405.38,-259.92"/>
<polygon fill="#64748b" stroke="#64748b" points="3407.9,-257.49 3398.15,-253.33 3403.18,-262.66 3407.9,-257.49"/>
</g>
<!-- lem:cos_two_pi_fifth -->
<g id="node11" class="node">
<title>lem:cos_two_pi_fifth</title>
<path fill="#86efac" stroke="black" d="M3435.88,-396C3435.88,-396 3354.62,-396 3354.62,-396 3348.62,-396 3342.62,-390 3342.62,-384 3342.62,-384 3342.62,-372 3342.62,-372 3342.62,-366 3348.62,-360 3354.62,-360 3354.62,-360 3435.88,-360 3435.88,-360 3441.88,-360 3447.88,-366 3447.88,-372 3447.88,-372 3447.88,-384 3447.88,-384 3447.88,-390 3441.88,-396 3435.88,-396"/>
<text xml:space="preserve" text-anchor="middle" x="3395.25" y="-372.57" font-family="Arial" font-size="14.00">Cosine Identity</text>
</g>
<!-- def:zeta5&#45;&gt;lem:cos_two_pi_fifth -->
<g id="edge13" class="edge">
<title>def:zeta5&#45;&gt;lem:cos_two_pi_fifth</title>
<path fill="none" stroke="#64748b" d="M3142.13,-431.51C3150.07,-428.73 3158.35,-426.09 3166.25,-424 3236,-405.54 3258.28,-411.74 3331.28,-396.5"/>
<polygon fill="#64748b" stroke="#64748b" points="3331.92,-399.94 3340.96,-394.41 3330.44,-393.1 3331.92,-399.94"/>
</g>
<!-- def:zeta5&#45;&gt;def:E -->
<g id="edge14" class="edge">
<title>def:zeta5&#45;&gt;def:E</title>
<path fill="none" stroke="#64748b" d="M3035.82,-433.98C2979.24,-420.37 2897.44,-400.7 2848.58,-388.94"/>
<polygon fill="#64748b" stroke="#64748b" points="2849.51,-385.57 2838.97,-386.63 2847.87,-392.37 2849.51,-385.57"/>
</g>
<!-- def:F -->
<g id="node14" class="node">
<title>def:F</title>
<path fill="#fde047" stroke="black" d="M2902.62,-252C2902.62,-252 2867.88,-252 2867.88,-252 2861.88,-252 2855.88,-246 2855.88,-240 2855.88,-240 2855.88,-228 2855.88,-228 2855.88,-222 2861.88,-216 2867.88,-216 2867.88,-216 2902.62,-216 2902.62,-216 2908.62,-216 2914.62,-222 2914.62,-228 2914.62,-228 2914.62,-240 2914.62,-240 2914.62,-246 2908.62,-252 2902.62,-252"/>
<text xml:space="preserve" text-anchor="middle" x="2885.25" y="-228.57" font-family="Arial" font-size="14.00">Point F</text>
</g>
<!-- def:zeta5&#45;&gt;def:F -->
<g id="edge17" class="edge">
<title>def:zeta5&#45;&gt;def:F</title>
<path fill="none" stroke="#64748b" d="M3081.18,-431.85C3043.71,-394.21 2954.13,-304.2 2910.28,-260.15"/>
<polygon fill="#64748b" stroke="#64748b" points="2913,-257.92 2903.47,-253.31 2908.04,-262.86 2913,-257.92"/>
</g>
<!-- def:G -->
<g id="node15" class="node">
<title>def:G</title>
<path fill="#fde047" stroke="black" d="M2636.12,-252C2636.12,-252 2598.38,-252 2598.38,-252 2592.38,-252 2586.38,-246 2586.38,-240 2586.38,-240 2586.38,-228 2586.38,-228 2586.38,-222 2592.38,-216 2598.38,-216 2598.38,-216 2636.12,-216 2636.12,-216 2642.12,-216 2648.12,-222 2648.12,-228 2648.12,-228 2648.12,-240 2648.12,-240 2648.12,-246 2642.12,-252 2636.12,-252"/>
<text xml:space="preserve" text-anchor="middle" x="2617.25" y="-228.57" font-family="Arial" font-size="14.00">Point G</text>
</g>
<!-- def:zeta5&#45;&gt;def:G -->
<g id="edge20" class="edge">
<title>def:zeta5&#45;&gt;def:G</title>
<path fill="none" stroke="#64748b" d="M3035.86,-446C2894.93,-437.76 2559.15,-409.38 2493.25,-324 2483.47,-311.33 2484.44,-301.35 2493.25,-288 2511.22,-260.78 2546.35,-247.49 2574.64,-241.03"/>
<polygon fill="#64748b" stroke="#64748b" points="2575.31,-244.47 2584.4,-239.03 2573.91,-237.61 2575.31,-244.47"/>
</g>
<!-- def:generators -->
<g id="node28" class="node">
<title>def:generators</title>
<path fill="#fde047" stroke="black" d="M1852.38,-396C1852.38,-396 1792.12,-396 1792.12,-396 1786.12,-396 1780.12,-390 1780.12,-384 1780.12,-384 1780.12,-372 1780.12,-372 1780.12,-366 1786.12,-360 1792.12,-360 1792.12,-360 1852.38,-360 1852.38,-360 1858.38,-360 1864.38,-366 1864.38,-372 1864.38,-372 1864.38,-384 1864.38,-384 1864.38,-390 1858.38,-396 1852.38,-396"/>
<text xml:space="preserve" text-anchor="middle" x="1822.25" y="-372.57" font-family="Arial" font-size="14.00">Generators</text>
</g>
<!-- def:zeta5&#45;&gt;def:generators -->
<g id="edge51" class="edge">
<title>def:zeta5&#45;&gt;def:generators</title>
<path fill="none" stroke="#64748b" d="M3035.92,-448.67C2860.86,-447.2 2349.99,-439.23 1928.25,-396 1911.15,-394.25 1892.62,-391.55 1875.9,-388.82"/>
<polygon fill="#64748b" stroke="#64748b" points="1876.59,-385.39 1866.15,-387.18 1875.43,-392.29 1876.59,-385.39"/>
</g>
<!-- def:zeta5&#45;&gt;ax:lens_preserved -->
<g id="edge56" class="edge">
<title>def:zeta5&#45;&gt;ax:lens_preserved</title>
<path fill="none" stroke="#64748b" d="M3035.78,-444.88C2861.63,-433.4 2368.96,-400.93 2147.04,-386.3"/>
<polygon fill="#64748b" stroke="#64748b" points="2147.43,-382.82 2137.22,-385.66 2146.97,-389.81 2147.43,-382.82"/>
</g>
<!-- lem:zeta5_pow_five&#45;&gt;lem:zeta5_primitive -->
<g id="edge9" class="edge">
<title>lem:zeta5_pow_five&#45;&gt;lem:zeta5_primitive</title>
<path fill="none" stroke="#64748b" d="M3187.25,-359.7C3187.25,-352.41 3187.25,-343.73 3187.25,-335.54"/>
<polygon fill="#64748b" stroke="#64748b" points="3190.75,-335.62 3187.25,-325.62 3183.75,-335.62 3190.75,-335.62"/>
</g>
<!-- lem:zeta5_primitive&#45;&gt;lem:cyclotomic5_sum -->
<g id="edge12" class="edge">
<title>lem:zeta5_primitive&#45;&gt;lem:cyclotomic5_sum</title>
<path fill="none" stroke="#64748b" d="M3234.46,-287.52C3260.03,-278.04 3291.84,-266.26 3318.85,-256.26"/>
<polygon fill="#64748b" stroke="#64748b" points="3319.74,-259.66 3327.9,-252.91 3317.31,-253.1 3319.74,-259.66"/>
</g>
<!-- def:Eprime -->
<g id="node13" class="node">
<title>def:Eprime</title>
<path fill="#fde047" stroke="black" d="M2826.5,-324C2826.5,-324 2788,-324 2788,-324 2782,-324 2776,-318 2776,-312 2776,-312 2776,-300 2776,-300 2776,-294 2782,-288 2788,-288 2788,-288 2826.5,-288 2826.5,-288 2832.5,-288 2838.5,-294 2838.5,-300 2838.5,-300 2838.5,-312 2838.5,-312 2838.5,-318 2832.5,-324 2826.5,-324"/>
<text xml:space="preserve" text-anchor="middle" x="2807.25" y="-300.57" font-family="Arial" font-size="14.00">Point E&#39;</text>
</g>
<!-- def:E&#45;&gt;def:Eprime -->
<g id="edge16" class="edge">
<title>def:E&#45;&gt;def:Eprime</title>
<path fill="none" stroke="#64748b" d="M2807.25,-359.7C2807.25,-352.41 2807.25,-343.73 2807.25,-335.54"/>
<polygon fill="#64748b" stroke="#64748b" points="2810.75,-335.62 2807.25,-325.62 2803.75,-335.62 2810.75,-335.62"/>
</g>
<!-- def:E&#45;&gt;def:F -->
<g id="edge18" class="edge">
<title>def:E&#45;&gt;def:F</title>
<path fill="none" stroke="#64748b" d="M2837.29,-363.28C2852.97,-354.43 2870.8,-341.32 2880.25,-324 2890.23,-305.7 2891.1,-282.02 2889.67,-263.68"/>
<polygon fill="#64748b" stroke="#64748b" points="2893.15,-263.32 2888.6,-253.75 2886.19,-264.07 2893.15,-263.32"/>
</g>
<!-- def:E&#45;&gt;def:G -->
<g id="edge21" class="edge">
<title>def:E&#45;&gt;def:G</title>
<path fill="none" stroke="#64748b" d="M2794.12,-359.5C2778.93,-340.15 2752.38,-308.95 2724.25,-288 2704.29,-273.13 2679.51,-260.55 2658.83,-251.39"/>
<polygon fill="#64748b" stroke="#64748b" points="2660.39,-248.25 2649.83,-247.51 2657.62,-254.68 2660.39,-248.25"/>
</g>
<!-- def:E&#45;&gt;lem:E_on_left_disk -->
<g id="edge23" class="edge">
<title>def:E&#45;&gt;lem:E_on_left_disk</title>
<path fill="none" stroke="#64748b" d="M2777.22,-372.24C2712.58,-362.01 2558.01,-337.53 2457.67,-321.64"/>
<polygon fill="#64748b" stroke="#64748b" points="2458.24,-318.18 2447.81,-320.08 2457.14,-325.1 2458.24,-318.18"/>
</g>
<!-- def:E&#45;&gt;lem:E_in_right_disk -->
<g id="edge25" class="edge">
<title>def:E&#45;&gt;lem:E_in_right_disk</title>
<path fill="none" stroke="#64748b" d="M2777.23,-368.7C2738.09,-357.86 2668.6,-338.64 2617.57,-324.52"/>
<polygon fill="#64748b" stroke="#64748b" points="2618.68,-321.2 2608.11,-321.9 2616.81,-327.94 2618.68,-321.2"/>
</g>
<!-- lem:F_on_segment -->
<g id="node20" class="node">
<title>lem:F_on_segment</title>
<path fill="#86efac" stroke="black" d="M3097,-180C3097,-180 3019.5,-180 3019.5,-180 3013.5,-180 3007.5,-174 3007.5,-168 3007.5,-168 3007.5,-156 3007.5,-156 3007.5,-150 3013.5,-144 3019.5,-144 3019.5,-144 3097,-144 3097,-144 3103,-144 3109,-150 3109,-156 3109,-156 3109,-168 3109,-168 3109,-174 3103,-180 3097,-180"/>
<text xml:space="preserve" text-anchor="middle" x="3058.25" y="-156.57" font-family="Arial" font-size="14.00">F on Segment</text>
</g>
<!-- def:E&#45;&gt;lem:F_on_segment -->
<g id="edge32" class="edge">
<title>def:E&#45;&gt;lem:F_on_segment</title>
<path fill="none" stroke="#64748b" d="M2837.31,-371.55C2868.25,-364.72 2916.56,-350.55 2950.25,-324 2996.37,-287.66 3029.78,-226.08 3046.39,-190.54"/>
<polygon fill="#64748b" stroke="#64748b" points="3049.42,-192.33 3050.38,-181.78 3043.05,-189.43 3049.42,-192.33"/>
</g>
<!-- lem:G_on_segment -->
<g id="node21" class="node">
<title>lem:G_on_segment</title>
<path fill="#86efac" stroke="black" d="M2678.5,-180C2678.5,-180 2598,-180 2598,-180 2592,-180 2586,-174 2586,-168 2586,-168 2586,-156 2586,-156 2586,-150 2592,-144 2598,-144 2598,-144 2678.5,-144 2678.5,-144 2684.5,-144 2690.5,-150 2690.5,-156 2690.5,-156 2690.5,-168 2690.5,-168 2690.5,-174 2684.5,-180 2678.5,-180"/>
<text xml:space="preserve" text-anchor="middle" x="2638.25" y="-156.57" font-family="Arial" font-size="14.00">G on Segment</text>
</g>
<!-- def:E&#45;&gt;lem:G_on_segment -->
<g id="edge34" class="edge">
<title>def:E&#45;&gt;lem:G_on_segment</title>
<path fill="none" stroke="#64748b" d="M2824.77,-359.57C2840.85,-341.35 2860.35,-312.11 2847.25,-288 2817.16,-232.62 2751.25,-199.35 2701.44,-181.22"/>
<polygon fill="#64748b" stroke="#64748b" points="2702.78,-177.98 2692.18,-177.98 2700.46,-184.59 2702.78,-177.98"/>
</g>
<!-- lem:segment_ordering -->
<g id="node22" class="node">
<title>lem:segment_ordering</title>
<path fill="#86efac" stroke="black" d="M2977.12,-180C2977.12,-180 2873.38,-180 2873.38,-180 2867.38,-180 2861.38,-174 2861.38,-168 2861.38,-168 2861.38,-156 2861.38,-156 2861.38,-150 2867.38,-144 2873.38,-144 2873.38,-144 2977.12,-144 2977.12,-144 2983.12,-144 2989.12,-150 2989.12,-156 2989.12,-156 2989.12,-168 2989.12,-168 2989.12,-174 2983.12,-180 2977.12,-180"/>
<text xml:space="preserve" text-anchor="middle" x="2925.25" y="-156.57" font-family="Arial" font-size="14.00">Segment Ordering</text>
</g>
<!-- def:E&#45;&gt;lem:segment_ordering -->
<g id="edge38" class="edge">
<title>def:E&#45;&gt;lem:segment_ordering</title>
<path fill="none" stroke="#64748b" d="M2837.42,-371.36C2864.59,-364.7 2903.64,-350.93 2926.25,-324 2957.54,-286.73 2952.58,-263.94 2944.25,-216 2942.79,-207.62 2940.13,-198.82 2937.25,-190.84"/>
<polygon fill="#64748b" stroke="#64748b" points="2940.57,-189.72 2933.69,-181.67 2934.05,-192.25 2940.57,-189.72"/>
</g>
<!-- def:translation_lengths -->
<g id="node23" class="node">
<title>def:translation_lengths</title>
<path fill="#fde047" stroke="black" d="M2831.5,-180C2831.5,-180 2721,-180 2721,-180 2715,-180 2709,-174 2709,-168 2709,-168 2709,-156 2709,-156 2709,-150 2715,-144 2721,-144 2721,-144 2831.5,-144 2831.5,-144 2837.5,-144 2843.5,-150 2843.5,-156 2843.5,-156 2843.5,-168 2843.5,-168 2843.5,-174 2837.5,-180 2831.5,-180"/>
<text xml:space="preserve" text-anchor="middle" x="2776.25" y="-156.57" font-family="Arial" font-size="14.00">Translation Lengths</text>
</g>
<!-- def:E&#45;&gt;def:translation_lengths -->
<g id="edge42" class="edge">
<title>def:E&#45;&gt;def:translation_lengths</title>
<path fill="none" stroke="#64748b" d="M2837.18,-366.34C2857.31,-357.76 2883.04,-343.84 2899.25,-324 2930.36,-285.92 2951.51,-256.24 2923.25,-216 2914.46,-203.49 2884.92,-191.72 2854.6,-182.47"/>
<polygon fill="#64748b" stroke="#64748b" points="2855.91,-179.2 2845.32,-179.73 2853.92,-185.92 2855.91,-179.2"/>
</g>
<!-- def:segment_length -->
<g id="node24" class="node">
<title>def:segment_length</title>
<path fill="#fde047" stroke="black" d="M3188.12,-252C3188.12,-252 3096.38,-252 3096.38,-252 3090.38,-252 3084.38,-246 3084.38,-240 3084.38,-240 3084.38,-228 3084.38,-228 3084.38,-222 3090.38,-216 3096.38,-216 3096.38,-216 3188.12,-216 3188.12,-216 3194.12,-216 3200.12,-222 3200.12,-228 3200.12,-228 3200.12,-240 3200.12,-240 3200.12,-246 3194.12,-252 3188.12,-252"/>
<text xml:space="preserve" text-anchor="middle" x="3142.25" y="-228.57" font-family="Arial" font-size="14.00">Segment Length</text>
</g>
<!-- def:E&#45;&gt;def:segment_length -->
<g id="edge45" class="edge">
<title>def:E&#45;&gt;def:segment_length</title>
<path fill="none" stroke="#64748b" d="M2837.45,-374.21C2882.03,-369.16 2967.21,-355.89 3032.25,-324 3065.21,-307.84 3097.16,-280.23 3118.06,-260.04"/>
<polygon fill="#64748b" stroke="#64748b" points="3120.31,-262.74 3124.97,-253.22 3115.39,-257.75 3120.31,-262.74"/>
</g>
<!-- thm:map1_endpoint_Eprime -->
<g id="node42" class="node">
<title>thm:map1_endpoint_Eprime</title>
<path fill="#93c5fd" stroke="black" d="M1545.88,-180C1545.88,-180 1446.62,-180 1446.62,-180 1440.62,-180 1434.62,-174 1434.62,-168 1434.62,-168 1434.62,-156 1434.62,-156 1434.62,-150 1440.62,-144 1446.62,-144 1446.62,-144 1545.88,-144 1545.88,-144 1551.88,-144 1557.88,-150 1557.88,-156 1557.88,-156 1557.88,-168 1557.88,-168 1557.88,-174 1551.88,-180 1545.88,-180"/>
<text xml:space="preserve" text-anchor="middle" x="1496.25" y="-156.57" font-family="Arial" font-size="14.00">Map1 Endpoint E&#39;</text>
</g>
<!-- def:E&#45;&gt;thm:map1_endpoint_Eprime -->
<g id="edge75" class="edge">
<title>def:E&#45;&gt;thm:map1_endpoint_Eprime</title>
<path fill="none" stroke="#64748b" d="M2777.14,-371.7C2743.6,-364.76 2688.78,-350.28 2648.25,-324 2630.04,-312.19 2634.77,-297.48 2615.25,-288 2519.63,-241.56 2244.02,-262.65 2138.25,-252 2014.36,-239.52 1709.71,-204.82 1569.17,-180.21"/>
<polygon fill="#64748b" stroke="#64748b" points="1570.07,-176.82 1559.61,-178.5 1568.84,-183.71 1570.07,-176.82"/>
</g>
<!-- thm:map2_endpoint_Gprime -->
<g id="node45" class="node">
<title>thm:map2_endpoint_Gprime</title>
<path fill="#93c5fd" stroke="black" d="M2271,-180C2271,-180 2169.5,-180 2169.5,-180 2163.5,-180 2157.5,-174 2157.5,-168 2157.5,-168 2157.5,-156 2157.5,-156 2157.5,-150 2163.5,-144 2169.5,-144 2169.5,-144 2271,-144 2271,-144 2277,-144 2283,-150 2283,-156 2283,-156 2283,-168 2283,-168 2283,-174 2277,-180 2271,-180"/>
<text xml:space="preserve" text-anchor="middle" x="2220.25" y="-156.57" font-family="Arial" font-size="14.00">Map2 Endpoint G&#39;</text>
</g>
<!-- def:E&#45;&gt;thm:map2_endpoint_Gprime -->
<g id="edge92" class="edge">
<title>def:E&#45;&gt;thm:map2_endpoint_Gprime</title>
<path fill="none" stroke="#64748b" d="M2777.13,-359.67C2760.95,-349.9 2740.95,-337.05 2724.25,-324 2705.92,-309.68 2706.22,-299.93 2686.25,-288 2642.46,-261.83 2621.83,-276.82 2577.25,-252 2555.47,-239.88 2556.98,-226.22 2534.25,-216 2438.36,-172.91 2401.5,-198.66 2294.66,-180.28"/>
<polygon fill="#64748b" stroke="#64748b" points="2295.36,-176.85 2284.89,-178.5 2294.1,-183.74 2295.36,-176.85"/>
</g>
<!-- thm:map3_endpoint_E -->
<g id="node47" class="node">
<title>thm:map3_endpoint_E</title>
<path fill="#93c5fd" stroke="black" d="M2127.38,-180C2127.38,-180 2031.12,-180 2031.12,-180 2025.12,-180 2019.12,-174 2019.12,-168 2019.12,-168 2019.12,-156 2019.12,-156 2019.12,-150 2025.12,-144 2031.12,-144 2031.12,-144 2127.38,-144 2127.38,-144 2133.38,-144 2139.38,-150 2139.38,-156 2139.38,-156 2139.38,-168 2139.38,-168 2139.38,-174 2133.38,-180 2127.38,-180"/>
<text xml:space="preserve" text-anchor="middle" x="2079.25" y="-156.57" font-family="Arial" font-size="14.00">Map3 Endpoint E</text>
</g>
<!-- def:E&#45;&gt;thm:map3_endpoint_E -->
<g id="edge98" class="edge">
<title>def:E&#45;&gt;thm:map3_endpoint_E</title>
<path fill="none" stroke="#64748b" d="M2777.19,-367.14C2751.78,-358.04 2715.01,-343.08 2686.25,-324 2666.86,-311.14 2668.3,-299.8 2648.25,-288 2602.46,-261.04 2584.02,-270.6 2534.25,-252 2496.58,-237.93 2490.07,-226.48 2451.25,-216 2323.78,-181.58 2283.78,-203.06 2150.76,-180.3"/>
<polygon fill="#64748b" stroke="#64748b" points="2151.69,-176.91 2141.23,-178.61 2150.47,-183.8 2151.69,-176.91"/>
</g>
<!-- def:Eprime&#45;&gt;def:F -->
<g id="edge19" class="edge">
<title>def:Eprime&#45;&gt;def:F</title>
<path fill="none" stroke="#64748b" d="M2826.53,-287.7C2835.91,-279.28 2847.34,-269.02 2857.63,-259.79"/>
<polygon fill="#64748b" stroke="#64748b" points="2859.69,-262.64 2864.79,-253.36 2855.01,-257.43 2859.69,-262.64"/>
</g>
<!-- def:Eprime&#45;&gt;def:G -->
<g id="edge22" class="edge">
<title>def:Eprime&#45;&gt;def:G</title>
<path fill="none" stroke="#64748b" d="M2775.8,-293.05C2771.26,-291.34 2766.64,-289.62 2762.25,-288 2717.93,-271.65 2706.57,-268.35 2662.25,-252 2661.11,-251.58 2659.96,-251.15 2658.8,-250.72"/>
<polygon fill="#64748b" stroke="#64748b" points="2660.22,-247.52 2649.63,-247.3 2657.77,-254.08 2660.22,-247.52"/>
</g>
<!-- def:Eprime&#45;&gt;lem:Eprime_on_right_disk -->
<g id="edge27" class="edge">
<title>def:Eprime&#45;&gt;lem:Eprime_on_right_disk</title>
<path fill="none" stroke="#64748b" d="M2775.8,-301.57C2677.31,-290.82 2378.79,-258.1 2335.25,-252 2334.25,-251.86 2333.24,-251.72 2332.23,-251.57"/>
<polygon fill="#64748b" stroke="#64748b" points="2333.15,-248.17 2322.75,-250.18 2332.13,-255.1 2333.15,-248.17"/>
</g>
<!-- def:Eprime&#45;&gt;lem:Eprime_in_left_disk -->
<g id="edge29" class="edge">
<title>def:Eprime&#45;&gt;lem:Eprime_in_left_disk</title>
<path fill="none" stroke="#64748b" d="M2775.89,-301.03C2715.36,-293.17 2578.36,-274.44 2464.25,-252 2460.88,-251.34 2457.42,-250.62 2453.94,-249.88"/>
<polygon fill="#64748b" stroke="#64748b" points="2454.79,-246.48 2444.27,-247.74 2453.28,-253.32 2454.79,-246.48"/>
</g>
<!-- def:Eprime&#45;&gt;lem:F_on_segment -->
<g id="edge33" class="edge">
<title>def:Eprime&#45;&gt;lem:F_on_segment</title>
<path fill="none" stroke="#64748b" d="M2838.91,-292.1C2862.6,-282.08 2895.55,-267.34 2923.25,-252 2959.34,-232.02 2998.48,-205.65 3025.28,-186.81"/>
<polygon fill="#64748b" stroke="#64748b" points="3027.19,-189.75 3033.33,-181.11 3023.14,-184.03 3027.19,-189.75"/>
</g>
<!-- def:Eprime&#45;&gt;lem:G_on_segment -->
<g id="edge35" class="edge">
<title>def:Eprime&#45;&gt;lem:G_on_segment</title>
<path fill="none" stroke="#64748b" d="M2786.53,-287.59C2756.67,-262.5 2701.42,-216.08 2667.44,-187.53"/>
<polygon fill="#64748b" stroke="#64748b" points="2669.94,-185.06 2660.04,-181.31 2665.44,-190.42 2669.94,-185.06"/>
</g>
<!-- def:Eprime&#45;&gt;lem:segment_ordering -->
<g id="edge39" class="edge">
<title>def:Eprime&#45;&gt;lem:segment_ordering</title>
<path fill="none" stroke="#64748b" d="M2811.9,-287.72C2817.72,-268.57 2829.17,-237.54 2847.25,-216 2856.8,-204.62 2869.38,-194.65 2881.64,-186.52"/>
<polygon fill="#64748b" stroke="#64748b" points="2883.47,-189.5 2890.06,-181.21 2879.74,-183.58 2883.47,-189.5"/>
</g>
<!-- def:Eprime&#45;&gt;def:translation_lengths -->
<g id="edge43" class="edge">
<title>def:Eprime&#45;&gt;def:translation_lengths</title>
<path fill="none" stroke="#64748b" d="M2803.45,-287.59C2798.19,-263.5 2788.64,-219.75 2782.37,-191.03"/>
<polygon fill="#64748b" stroke="#64748b" points="2785.86,-190.61 2780.31,-181.59 2779.02,-192.11 2785.86,-190.61"/>
</g>
<!-- def:Eprime&#45;&gt;def:segment_length -->
<g id="edge46" class="edge">
<title>def:Eprime&#45;&gt;def:segment_length</title>
<path fill="none" stroke="#64748b" d="M2838.77,-298.41C2892.03,-287.29 3001.05,-264.5 3072.88,-249.49"/>
<polygon fill="#64748b" stroke="#64748b" points="3073.52,-252.94 3082.59,-247.47 3072.09,-246.08 3073.52,-252.94"/>
</g>
<!-- def:Eprime&#45;&gt;thm:map1_endpoint_Eprime -->
<g id="edge76" class="edge">
<title>def:Eprime&#45;&gt;thm:map1_endpoint_Eprime</title>
<path fill="none" stroke="#64748b" d="M2775.5,-298.23C2731.02,-288.62 2647.68,-270.16 2577.25,-252 2520.85,-237.46 2508.75,-225.25 2451.25,-216 2066.72,-154.14 1958.78,-232.52 1569.38,-180.1"/>
<polygon fill="#64748b" stroke="#64748b" points="1569.95,-176.64 1559.57,-178.76 1569,-183.58 1569.95,-176.64"/>
</g>
<!-- thm:map3_endpoint_Gprime -->
<g id="node46" class="node">
<title>thm:map3_endpoint_Gprime</title>
<path fill="#93c5fd" stroke="black" d="M2415,-180C2415,-180 2313.5,-180 2313.5,-180 2307.5,-180 2301.5,-174 2301.5,-168 2301.5,-168 2301.5,-156 2301.5,-156 2301.5,-150 2307.5,-144 2313.5,-144 2313.5,-144 2415,-144 2415,-144 2421,-144 2427,-150 2427,-156 2427,-156 2427,-168 2427,-168 2427,-174 2421,-180 2415,-180"/>
<text xml:space="preserve" text-anchor="middle" x="2364.25" y="-156.57" font-family="Arial" font-size="14.00">Map3 Endpoint G&#39;</text>
</g>
<!-- def:Eprime&#45;&gt;thm:map3_endpoint_Gprime -->
<g id="edge95" class="edge">
<title>def:Eprime&#45;&gt;thm:map3_endpoint_Gprime</title>
<path fill="none" stroke="#64748b" d="M2775.5,-292.26C2753.08,-282.63 2722.78,-268.31 2698.25,-252 2678.05,-238.58 2679.18,-226.35 2657.25,-216 2570.51,-175.06 2536.34,-197.66 2438.67,-180.3"/>
<polygon fill="#64748b" stroke="#64748b" points="2439.37,-176.88 2428.9,-178.46 2438.08,-183.75 2439.37,-176.88"/>
</g>
<!-- def:F&#45;&gt;lem:F_on_segment -->
<g id="edge31" class="edge">
<title>def:F&#45;&gt;lem:F_on_segment</title>
<path fill="none" stroke="#64748b" d="M2914.99,-220.97C2939.6,-211.01 2975.18,-196.61 3004.72,-184.66"/>
<polygon fill="#64748b" stroke="#64748b" points="3005.94,-187.94 3013.9,-180.94 3003.32,-181.45 3005.94,-187.94"/>
</g>
<!-- def:F&#45;&gt;lem:segment_ordering -->
<g id="edge37" class="edge">
<title>def:F&#45;&gt;lem:segment_ordering</title>
<path fill="none" stroke="#64748b" d="M2895.14,-215.7C2899.59,-207.9 2904.96,-198.51 2909.92,-189.83"/>
<polygon fill="#64748b" stroke="#64748b" points="2912.8,-191.84 2914.73,-181.42 2906.72,-188.36 2912.8,-191.84"/>
</g>
<!-- def:F&#45;&gt;def:translation_lengths -->
<g id="edge41" class="edge">
<title>def:F&#45;&gt;def:translation_lengths</title>
<path fill="none" stroke="#64748b" d="M2858.03,-215.52C2844.27,-206.68 2827.38,-195.84 2812.54,-186.3"/>
<polygon fill="#64748b" stroke="#64748b" points="2814.71,-183.54 2804.4,-181.08 2810.92,-189.43 2814.71,-183.54"/>
</g>
<!-- thm:map1_endpoint_Fprime -->
<g id="node43" class="node">
<title>thm:map1_endpoint_Fprime</title>
<path fill="#93c5fd" stroke="black" d="M1320.5,-180C1320.5,-180 1222,-180 1222,-180 1216,-180 1210,-174 1210,-168 1210,-168 1210,-156 1210,-156 1210,-150 1216,-144 1222,-144 1222,-144 1320.5,-144 1320.5,-144 1326.5,-144 1332.5,-150 1332.5,-156 1332.5,-156 1332.5,-168 1332.5,-168 1332.5,-174 1326.5,-180 1320.5,-180"/>
<text xml:space="preserve" text-anchor="middle" x="1271.25" y="-156.57" font-family="Arial" font-size="14.00">Map1 Endpoint F&#39;</text>
</g>
<!-- def:F&#45;&gt;thm:map1_endpoint_Fprime -->
<g id="edge83" class="edge">
<title>def:F&#45;&gt;thm:map1_endpoint_Fprime</title>
<path fill="none" stroke="#64748b" d="M2855.4,-230.34C2811.87,-226.56 2728.4,-219.69 2657.25,-216 2110.2,-187.63 1971.71,-218.08 1425.25,-180 1398.72,-178.15 1369.71,-175.19 1344.1,-172.26"/>
<polygon fill="#64748b" stroke="#64748b" points="1344.81,-168.82 1334.47,-171.14 1344,-175.77 1344.81,-168.82"/>
</g>
<!-- thm:map2_endpoint_Fprime -->
<g id="node44" class="node">
<title>thm:map2_endpoint_Fprime</title>
<path fill="#93c5fd" stroke="black" d="M2555.5,-180C2555.5,-180 2457,-180 2457,-180 2451,-180 2445,-174 2445,-168 2445,-168 2445,-156 2445,-156 2445,-150 2451,-144 2457,-144 2457,-144 2555.5,-144 2555.5,-144 2561.5,-144 2567.5,-150 2567.5,-156 2567.5,-156 2567.5,-168 2567.5,-168 2567.5,-174 2561.5,-180 2555.5,-180"/>
<text xml:space="preserve" text-anchor="middle" x="2506.25" y="-156.57" font-family="Arial" font-size="14.00">Map2 Endpoint F&#39;</text>
</g>
<!-- def:F&#45;&gt;thm:map2_endpoint_Fprime -->
<g id="edge90" class="edge">
<title>def:F&#45;&gt;thm:map2_endpoint_Fprime</title>
<path fill="none" stroke="#64748b" d="M2855.4,-228.52C2802.08,-220.38 2686.76,-202.13 2578.86,-180.25"/>
<polygon fill="#64748b" stroke="#64748b" points="2579.75,-176.86 2569.25,-178.29 2578.35,-183.72 2579.75,-176.86"/>
</g>
<!-- def:G&#45;&gt;lem:G_on_segment -->
<g id="edge36" class="edge">
<title>def:G&#45;&gt;lem:G_on_segment</title>
<path fill="none" stroke="#64748b" d="M2622.44,-215.7C2624.68,-208.24 2627.35,-199.32 2629.86,-190.97"/>
<polygon fill="#64748b" stroke="#64748b" points="2633.16,-192.14 2632.68,-181.55 2626.46,-190.13 2633.16,-192.14"/>
</g>
<!-- def:G&#45;&gt;lem:segment_ordering -->
<g id="edge40" class="edge">
<title>def:G&#45;&gt;lem:segment_ordering</title>
<path fill="none" stroke="#64748b" d="M2648.44,-226.04C2691.44,-216.43 2771.65,-198.44 2850.11,-180.48"/>
<polygon fill="#64748b" stroke="#64748b" points="2850.72,-183.93 2859.69,-178.29 2849.16,-177.11 2850.72,-183.93"/>
</g>
<!-- def:G&#45;&gt;def:translation_lengths -->
<g id="edge44" class="edge">
<title>def:G&#45;&gt;def:translation_lengths</title>
<path fill="none" stroke="#64748b" d="M2648.28,-219.34C2670.45,-209.58 2700.73,-196.25 2726.28,-185"/>
<polygon fill="#64748b" stroke="#64748b" points="2727.4,-188.33 2735.15,-181.1 2724.58,-181.92 2727.4,-188.33"/>
</g>
<!-- def:G&#45;&gt;thm:map1_endpoint_Eprime -->
<g id="edge79" class="edge">
<title>def:G&#45;&gt;thm:map1_endpoint_Eprime</title>
<path fill="none" stroke="#64748b" d="M2586.01,-227.9C2560.78,-223.99 2524.32,-218.8 2492.25,-216 2086.09,-180.56 1976.79,-235.17 1569.29,-180.09"/>
<polygon fill="#64748b" stroke="#64748b" points="1569.95,-176.65 1559.57,-178.76 1569,-183.58 1569.95,-176.65"/>
</g>
<!-- def:G&#45;&gt;thm:map2_endpoint_Gprime -->
<g id="edge93" class="edge">
<title>def:G&#45;&gt;thm:map2_endpoint_Gprime</title>
<path fill="none" stroke="#64748b" d="M2586.08,-220.16C2581.49,-218.58 2576.79,-217.13 2572.25,-216 2453.96,-186.48 2417.74,-201.53 2294.4,-180.25"/>
<polygon fill="#64748b" stroke="#64748b" points="2295.34,-176.87 2284.88,-178.56 2294.11,-183.76 2295.34,-176.87"/>
</g>
<!-- def:G&#45;&gt;thm:map3_endpoint_Gprime -->
<g id="edge96" class="edge">
<title>def:G&#45;&gt;thm:map3_endpoint_Gprime</title>
<path fill="none" stroke="#64748b" d="M2585.94,-220.66C2581.37,-219.01 2576.71,-217.41 2572.25,-216 2547.39,-208.16 2487.57,-193.06 2438.43,-180.98"/>
<polygon fill="#64748b" stroke="#64748b" points="2439.5,-177.63 2428.95,-178.65 2437.83,-184.43 2439.5,-177.63"/>
</g>
<!-- def:G&#45;&gt;thm:map3_endpoint_E -->
<g id="edge99" class="edge">
<title>def:G&#45;&gt;thm:map3_endpoint_E</title>
<path fill="none" stroke="#64748b" d="M2586.26,-225.82C2570.72,-222.43 2551.56,-218.57 2534.25,-216 2367.48,-191.22 2320.17,-207.93 2151.04,-180.32"/>
<polygon fill="#64748b" stroke="#64748b" points="2151.66,-176.88 2141.22,-178.69 2150.51,-183.78 2151.66,-176.88"/>
</g>
<!-- thm:segment_ratio_golden -->
<g id="node25" class="node">
<title>thm:segment_ratio_golden</title>
<path fill="#93c5fd" stroke="black" d="M2960,-108C2960,-108 2816.5,-108 2816.5,-108 2810.5,-108 2804.5,-102 2804.5,-96 2804.5,-96 2804.5,-84 2804.5,-84 2804.5,-78 2810.5,-72 2816.5,-72 2816.5,-72 2960,-72 2960,-72 2966,-72 2972,-78 2972,-84 2972,-84 2972,-96 2972,-96 2972,-102 2966,-108 2960,-108"/>
<text xml:space="preserve" text-anchor="middle" x="2888.25" y="-84.58" font-family="Arial" font-size="14.00">Segment Ratio is Golden</text>
</g>
<!-- def:translation_lengths&#45;&gt;thm:segment_ratio_golden -->
<g id="edge48" class="edge">
<title>def:translation_lengths&#45;&gt;thm:segment_ratio_golden</title>
<path fill="none" stroke="#64748b" d="M2804.22,-143.52C2818.36,-134.68 2835.71,-123.84 2850.97,-114.3"/>
<polygon fill="#64748b" stroke="#64748b" points="2852.72,-117.33 2859.35,-109.06 2849.01,-111.39 2852.72,-117.33"/>
</g>
<!-- thm:translations_irrational -->
<g id="node26" class="node">
<title>thm:translations_irrational</title>
<path fill="#93c5fd" stroke="black" d="M2893.12,-36C2893.12,-36 2771.38,-36 2771.38,-36 2765.38,-36 2759.38,-30 2759.38,-24 2759.38,-24 2759.38,-12 2759.38,-12 2759.38,-6 2765.38,0 2771.38,0 2771.38,0 2893.12,0 2893.12,0 2899.12,0 2905.12,-6 2905.12,-12 2905.12,-12 2905.12,-24 2905.12,-24 2905.12,-30 2899.12,-36 2893.12,-36"/>
<text xml:space="preserve" text-anchor="middle" x="2832.25" y="-12.57" font-family="Arial" font-size="14.00">Translations Irrational</text>
</g>
<!-- def:translation_lengths&#45;&gt;thm:translations_irrational -->
<g id="edge49" class="edge">
<title>def:translation_lengths&#45;&gt;thm:translations_irrational</title>
<path fill="none" stroke="#64748b" d="M2777.89,-143.65C2780.09,-125.24 2784.99,-95.62 2795.25,-72 2799.3,-62.68 2805.11,-53.32 2810.94,-45.12"/>
<polygon fill="#64748b" stroke="#64748b" points="2813.6,-47.41 2816.77,-37.3 2807.98,-43.22 2813.6,-47.41"/>
</g>
<!-- def:segment_length&#45;&gt;thm:segment_ratio_golden -->
<g id="edge47" class="edge">
<title>def:segment_length&#45;&gt;thm:segment_ratio_golden</title>
<path fill="none" stroke="#64748b" d="M3142.57,-215.65C3141.95,-195.54 3137.72,-162.77 3118.25,-144 3098.69,-125.15 3037.67,-111.6 2983.4,-102.93"/>
<polygon fill="#64748b" stroke="#64748b" points="2984.21,-99.51 2973.79,-101.44 2983.14,-106.43 2984.21,-99.51"/>
</g>
<!-- thm:segment_ratio_golden&#45;&gt;thm:translations_irrational -->
<g id="edge50" class="edge">
<title>thm:segment_ratio_golden&#45;&gt;thm:translations_irrational</title>
<path fill="none" stroke="#64748b" d="M2874.41,-71.7C2867.96,-63.64 2860.17,-53.89 2853.04,-44.98"/>
<polygon fill="#64748b" stroke="#64748b" points="2855.86,-42.91 2846.88,-37.29 2850.39,-47.28 2855.86,-42.91"/>
</g>
<!-- def:twodisk -->
<g id="node27" class="node">
<title>def:twodisk</title>
<path fill="#fde047" stroke="black" d="M899.75,-468C899.75,-468 802.75,-468 802.75,-468 796.75,-468 790.75,-462 790.75,-456 790.75,-456 790.75,-444 790.75,-444 790.75,-438 796.75,-432 802.75,-432 802.75,-432 899.75,-432 899.75,-432 905.75,-432 911.75,-438 911.75,-444 911.75,-444 911.75,-456 911.75,-456 911.75,-462 905.75,-468 899.75,-468"/>
<text xml:space="preserve" text-anchor="middle" x="851.25" y="-444.57" font-family="Arial" font-size="14.00">Two&#45;Disk System</text>
</g>
<!-- def:twodisk&#45;&gt;def:generators -->
<g id="edge52" class="edge">
<title>def:twodisk&#45;&gt;def:generators</title>
<path fill="none" stroke="#64748b" d="M912.18,-448.04C1055.76,-445.18 1426.34,-434.37 1733.25,-396 1744.84,-394.55 1757.2,-392.51 1768.9,-390.35"/>
<polygon fill="#64748b" stroke="#64748b" points="1769.22,-393.85 1778.39,-388.53 1767.91,-386.97 1769.22,-393.85"/>
</g>
<!-- def:twodisk&#45;&gt;def:gg5_critical -->
<g id="edge53" class="edge">
<title>def:twodisk&#45;&gt;def:gg5_critical</title>
<path fill="none" stroke="#64748b" d="M790.57,-446.13C661.26,-439.6 362.39,-422.12 264.25,-396 207.87,-381 147.47,-350.79 109.31,-329.75"/>
<polygon fill="#64748b" stroke="#64748b" points="111.39,-326.9 100.95,-325.08 107.98,-333.02 111.39,-326.9"/>
</g>
<!-- def:generators&#45;&gt;def:gg5_critical -->
<g id="edge54" class="edge">
<title>def:generators&#45;&gt;def:gg5_critical</title>
<path fill="none" stroke="#64748b" d="M1779.91,-367.43C1765.22,-364.5 1748.58,-361.63 1733.25,-360 1037.2,-286.13 851.25,-404.21 152.17,-324.05"/>
<polygon fill="#64748b" stroke="#64748b" points="152.64,-320.59 142.31,-322.91 151.84,-327.54 152.64,-320.59"/>
</g>
<!-- lem:genA_preserves -->
<g id="node31" class="node">
<title>lem:genA_preserves</title>
<path fill="#86efac" stroke="black" d="M2178.5,-324C2178.5,-324 2014,-324 2014,-324 2008,-324 2002,-318 2002,-312 2002,-312 2002,-300 2002,-300 2002,-294 2008,-288 2014,-288 2014,-288 2178.5,-288 2178.5,-288 2184.5,-288 2190.5,-294 2190.5,-300 2190.5,-300 2190.5,-312 2190.5,-312 2190.5,-318 2184.5,-324 2178.5,-324"/>
<text xml:space="preserve" text-anchor="middle" x="2096.25" y="-300.57" font-family="Arial" font-size="14.00">GenA Preserves Intersection</text>
</g>
<!-- def:generators&#45;&gt;lem:genA_preserves -->
<g id="edge59" class="edge">
<title>def:generators&#45;&gt;lem:genA_preserves</title>
<path fill="none" stroke="#64748b" d="M1864.76,-366.14C1905.29,-355.79 1967.32,-339.94 2016.98,-327.25"/>
<polygon fill="#64748b" stroke="#64748b" points="2017.73,-330.67 2026.55,-324.81 2015.99,-323.89 2017.73,-330.67"/>
</g>
<!-- lem:genB_preserves -->
<g id="node32" class="node">
<title>lem:genB_preserves</title>
<path fill="#86efac" stroke="black" d="M1971.88,-324C1971.88,-324 1806.62,-324 1806.62,-324 1800.62,-324 1794.62,-318 1794.62,-312 1794.62,-312 1794.62,-300 1794.62,-300 1794.62,-294 1800.62,-288 1806.62,-288 1806.62,-288 1971.88,-288 1971.88,-288 1977.88,-288 1983.88,-294 1983.88,-300 1983.88,-300 1983.88,-312 1983.88,-312 1983.88,-318 1977.88,-324 1971.88,-324"/>
<text xml:space="preserve" text-anchor="middle" x="1889.25" y="-300.57" font-family="Arial" font-size="14.00">GenB Preserves Intersection</text>
</g>
<!-- def:generators&#45;&gt;lem:genB_preserves -->
<g id="edge61" class="edge">
<title>def:generators&#45;&gt;lem:genB_preserves</title>
<path fill="none" stroke="#64748b" d="M1838.81,-359.7C1846.68,-351.47 1856.24,-341.48 1864.92,-332.42"/>
<polygon fill="#64748b" stroke="#64748b" points="1867.45,-334.84 1871.83,-325.2 1862.39,-330 1867.45,-334.84"/>
</g>
<!-- lem:genA_isometric -->
<g id="node33" class="node">
<title>lem:genA_isometric</title>
<path fill="#86efac" stroke="black" d="M1505.12,-324C1505.12,-324 1419.38,-324 1419.38,-324 1413.38,-324 1407.38,-318 1407.38,-312 1407.38,-312 1407.38,-300 1407.38,-300 1407.38,-294 1413.38,-288 1419.38,-288 1419.38,-288 1505.12,-288 1505.12,-288 1511.12,-288 1517.12,-294 1517.12,-300 1517.12,-300 1517.12,-312 1517.12,-312 1517.12,-318 1511.12,-324 1505.12,-324"/>
<text xml:space="preserve" text-anchor="middle" x="1462.25" y="-300.57" font-family="Arial" font-size="14.00">GenA Isometric</text>
</g>
<!-- def:generators&#45;&gt;lem:genA_isometric -->
<g id="edge62" class="edge">
<title>def:generators&#45;&gt;lem:genA_isometric</title>
<path fill="none" stroke="#64748b" d="M1779.92,-363.44C1775.33,-362.18 1770.71,-361.01 1766.25,-360 1664.53,-337.06 1633.89,-345.28 1528.45,-324.31"/>
<polygon fill="#64748b" stroke="#64748b" points="1529.3,-320.91 1518.8,-322.34 1527.9,-327.77 1529.3,-320.91"/>
</g>
<!-- lem:genB_isometric -->
<g id="node34" class="node">
<title>lem:genB_isometric</title>
<path fill="#86efac" stroke="black" d="M1633.5,-324C1633.5,-324 1547,-324 1547,-324 1541,-324 1535,-318 1535,-312 1535,-312 1535,-300 1535,-300 1535,-294 1541,-288 1547,-288 1547,-288 1633.5,-288 1633.5,-288 1639.5,-288 1645.5,-294 1645.5,-300 1645.5,-300 1645.5,-312 1645.5,-312 1645.5,-318 1639.5,-324 1633.5,-324"/>
<text xml:space="preserve" text-anchor="middle" x="1590.25" y="-300.57" font-family="Arial" font-size="14.00">GenB Isometric</text>
</g>
<!-- def:generators&#45;&gt;lem:genB_isometric -->
<g id="edge63" class="edge">
<title>def:generators&#45;&gt;lem:genB_isometric</title>
<path fill="none" stroke="#64748b" d="M1779.75,-364.09C1775.19,-362.71 1770.63,-361.32 1766.25,-360 1730.03,-349.05 1689.59,-336.87 1656.62,-326.95"/>
<polygon fill="#64748b" stroke="#64748b" points="1657.78,-323.64 1647.2,-324.11 1655.76,-330.35 1657.78,-323.64"/>
</g>
<!-- def:map1 -->
<g id="node35" class="node">
<title>def:map1</title>
<path fill="#fde047" stroke="black" d="M1171.62,-324C1171.62,-324 1082.88,-324 1082.88,-324 1076.88,-324 1070.88,-318 1070.88,-312 1070.88,-312 1070.88,-300 1070.88,-300 1070.88,-294 1076.88,-288 1082.88,-288 1082.88,-288 1171.62,-288 1171.62,-288 1177.62,-288 1183.62,-294 1183.62,-300 1183.62,-300 1183.62,-312 1183.62,-312 1183.62,-318 1177.62,-324 1171.62,-324"/>
<text xml:space="preserve" text-anchor="middle" x="1127.25" y="-300.57" font-family="Arial" font-size="14.00">Segment Map 1</text>
</g>
<!-- def:generators&#45;&gt;def:map1 -->
<g id="edge64" class="edge">
<title>def:generators&#45;&gt;def:map1</title>
<path fill="none" stroke="#64748b" d="M1779.85,-367.9C1765.15,-365.01 1748.53,-362.04 1733.25,-360 1527.8,-332.51 1474.53,-344.41 1268.25,-324 1244.32,-321.63 1218.15,-318.6 1194.93,-315.75"/>
<polygon fill="#64748b" stroke="#64748b" points="1195.65,-312.32 1185.29,-314.56 1194.79,-319.26 1195.65,-312.32"/>
</g>
<!-- def:map2 -->
<g id="node36" class="node">
<title>def:map2</title>
<path fill="#fde047" stroke="black" d="M1764.62,-324C1764.62,-324 1675.88,-324 1675.88,-324 1669.88,-324 1663.88,-318 1663.88,-312 1663.88,-312 1663.88,-300 1663.88,-300 1663.88,-294 1669.88,-288 1675.88,-288 1675.88,-288 1764.62,-288 1764.62,-288 1770.62,-288 1776.62,-294 1776.62,-300 1776.62,-300 1776.62,-312 1776.62,-312 1776.62,-318 1770.62,-324 1764.62,-324"/>
<text xml:space="preserve" text-anchor="middle" x="1720.25" y="-300.57" font-family="Arial" font-size="14.00">Segment Map 2</text>
</g>
<!-- def:generators&#45;&gt;def:map2 -->
<g id="edge65" class="edge">
<title>def:generators&#45;&gt;def:map2</title>
<path fill="none" stroke="#64748b" d="M1796.77,-359.52C1784.02,-350.76 1768.4,-340.04 1754.6,-330.58"/>
<polygon fill="#64748b" stroke="#64748b" points="1756.87,-327.89 1746.65,-325.12 1752.91,-333.66 1756.87,-327.89"/>
</g>
<!-- def:map3 -->
<g id="node37" class="node">
<title>def:map3</title>
<path fill="#fde047" stroke="black" d="M1377.62,-324C1377.62,-324 1288.88,-324 1288.88,-324 1282.88,-324 1276.88,-318 1276.88,-312 1276.88,-312 1276.88,-300 1276.88,-300 1276.88,-294 1282.88,-288 1288.88,-288 1288.88,-288 1377.62,-288 1377.62,-288 1383.62,-288 1389.62,-294 1389.62,-300 1389.62,-300 1389.62,-312 1389.62,-312 1389.62,-318 1383.62,-324 1377.62,-324"/>
<text xml:space="preserve" text-anchor="middle" x="1333.25" y="-300.57" font-family="Arial" font-size="14.00">Segment Map 3</text>
</g>
<!-- def:generators&#45;&gt;def:map3 -->
<g id="edge66" class="edge">
<title>def:generators&#45;&gt;def:map3</title>
<path fill="none" stroke="#64748b" d="M1779.67,-363.13C1775.17,-361.95 1770.63,-360.87 1766.25,-360 1608.68,-328.7 1562.11,-351.79 1401.13,-324.34"/>
<polygon fill="#64748b" stroke="#64748b" points="1401.8,-320.9 1391.34,-322.63 1400.59,-327.8 1401.8,-320.9"/>
</g>
<!-- def:gg5_critical&#45;&gt;thm:main -->
<g id="edge2" class="edge">
<title>def:gg5_critical&#45;&gt;thm:main</title>
<path fill="none" stroke="#64748b" d="M66.08,-287.64C62.5,-268.41 59.93,-237.31 74.25,-216 116.84,-152.62 157.41,-166.93 230.25,-144 432.48,-80.32 678.6,-45.67 817.36,-29.87"/>
<polygon fill="#64748b" stroke="#64748b" points="817.35,-33.39 826.89,-28.79 816.56,-26.43 817.35,-33.39"/>
</g>
<!-- ax:lens_preserved&#45;&gt;lem:genA_preserves -->
<g id="edge58" class="edge">
<title>ax:lens_preserved&#45;&gt;lem:genA_preserves</title>
<path fill="none" stroke="#64748b" d="M2051.08,-359.7C2058.06,-351.56 2066.52,-341.69 2074.22,-332.7"/>
<polygon fill="#64748b" stroke="#64748b" points="2076.75,-335.12 2080.6,-325.25 2071.44,-330.57 2076.75,-335.12"/>
</g>
<!-- ax:lens_preserved&#45;&gt;lem:genB_preserves -->
<g id="edge60" class="edge">
<title>ax:lens_preserved&#45;&gt;lem:genB_preserves</title>
<path fill="none" stroke="#64748b" d="M1999.53,-359.52C1980.34,-350.38 1956.65,-339.09 1936.14,-329.33"/>
<polygon fill="#64748b" stroke="#64748b" points="1937.65,-326.17 1927.12,-325.03 1934.64,-332.49 1937.65,-326.17"/>
</g>
<!-- def:map1&#45;&gt;ax:map1_z1 -->
<g id="edge68" class="edge">
<title>def:map1&#45;&gt;ax:map1_z1</title>
<path fill="none" stroke="#64748b" d="M1073.3,-287.52C1043.68,-277.92 1006.75,-265.95 975.63,-255.86"/>
<polygon fill="#64748b" stroke="#64748b" points="976.92,-252.6 966.32,-252.85 974.76,-259.26 976.92,-252.6"/>
</g>
<!-- def:map1&#45;&gt;ax:map1_z2 -->
<g id="edge70" class="edge">
<title>def:map1&#45;&gt;ax:map1_z2</title>
<path fill="none" stroke="#64748b" d="M1184.09,-290.79C1188.53,-289.81 1192.96,-288.86 1197.25,-288 1293.47,-268.69 1321.06,-269 1420.09,-252.51"/>
<polygon fill="#64748b" stroke="#64748b" points="1420.43,-256 1429.71,-250.89 1419.27,-249.1 1420.43,-256"/>
</g>
<!-- def:map1&#45;&gt;ax:map1_z3 -->
<g id="edge72" class="edge">
<title>def:map1&#45;&gt;ax:map1_z3</title>
<path fill="none" stroke="#64748b" d="M1177.45,-287.52C1204.78,-278 1238.78,-266.16 1267.58,-256.13"/>
<polygon fill="#64748b" stroke="#64748b" points="1268.62,-259.47 1276.91,-252.88 1266.32,-252.86 1268.62,-259.47"/>
</g>
<!-- def:map1&#45;&gt;ax:map1_z4 -->
<g id="edge74" class="edge">
<title>def:map1&#45;&gt;ax:map1_z4</title>
<path fill="none" stroke="#64748b" d="M1120.58,-287.7C1117.67,-280.15 1114.18,-271.12 1110.93,-262.68"/>
<polygon fill="#64748b" stroke="#64748b" points="1114.26,-261.59 1107.39,-253.52 1107.73,-264.11 1114.26,-261.59"/>
</g>
<!-- def:map1&#45;&gt;thm:map1_endpoint_Eprime -->
<g id="edge82" class="edge">
<title>def:map1&#45;&gt;thm:map1_endpoint_Eprime</title>
<path fill="none" stroke="#64748b" d="M1184.05,-295.39C1200.53,-292.79 1218.58,-290.11 1235.25,-288 1277,-282.73 1583.94,-283.14 1612.25,-252 1623.01,-240.16 1620.9,-229.46 1612.25,-216 1601.99,-200.04 1585.61,-188.83 1568.35,-180.97"/>
<polygon fill="#64748b" stroke="#64748b" points="1570.1,-177.91 1559.52,-177.3 1567.41,-184.37 1570.1,-177.91"/>
</g>
<!-- def:map1&#45;&gt;thm:map1_endpoint_Fprime -->
<g id="edge88" class="edge">
<title>def:map1&#45;&gt;thm:map1_endpoint_Fprime</title>
<path fill="none" stroke="#64748b" d="M1151.82,-287.73C1165.2,-277.87 1181.73,-264.93 1195.25,-252 1215.76,-232.39 1236.51,-207.69 1251.13,-189.29"/>
<polygon fill="#64748b" stroke="#64748b" points="1253.83,-191.52 1257.26,-181.49 1248.33,-187.19 1253.83,-191.52"/>
</g>
<!-- def:gg5_iet -->
<g id="node51" class="node">
<title>def:gg5_iet</title>
<path fill="#fde047" stroke="black" d="M1769.5,-252C1769.5,-252 1671,-252 1671,-252 1665,-252 1659,-246 1659,-240 1659,-240 1659,-228 1659,-228 1659,-222 1665,-216 1671,-216 1671,-216 1769.5,-216 1769.5,-216 1775.5,-216 1781.5,-222 1781.5,-228 1781.5,-228 1781.5,-240 1781.5,-240 1781.5,-246 1775.5,-252 1769.5,-252"/>
<text xml:space="preserve" text-anchor="middle" x="1720.25" y="-228.57" font-family="Arial" font-size="14.00">GG5 Induced IET</text>
</g>
<!-- def:map1&#45;&gt;def:gg5_iet -->
<g id="edge105" class="edge">
<title>def:map1&#45;&gt;def:gg5_iet</title>
<path fill="none" stroke="#64748b" d="M1184.04,-295.31C1200.52,-292.7 1218.58,-290.04 1235.25,-288 1416.82,-265.77 1464.53,-280.28 1645.25,-252 1645.93,-251.89 1646.61,-251.78 1647.3,-251.67"/>
<polygon fill="#64748b" stroke="#64748b" points="1647.85,-255.13 1657.09,-249.94 1646.63,-248.24 1647.85,-255.13"/>
</g>
<!-- def:map2&#45;&gt;thm:map2_endpoint_Fprime -->
<g id="edge89" class="edge">
<title>def:map2&#45;&gt;thm:map2_endpoint_Fprime</title>
<path fill="none" stroke="#64748b" d="M1776.91,-289.92C1779.73,-289.25 1782.52,-288.61 1785.25,-288 1871.71,-268.78 1894.51,-269.9 1981.25,-252 2051.36,-237.53 2067.73,-228.31 2138.25,-216 2266.08,-193.69 2302.98,-203.22 2433.63,-180.35"/>
<polygon fill="#64748b" stroke="#64748b" points="2434.16,-183.81 2443.39,-178.6 2432.93,-176.92 2434.16,-183.81"/>
</g>
<!-- def:map2&#45;&gt;thm:map2_endpoint_Gprime -->
<g id="edge91" class="edge">
<title>def:map2&#45;&gt;thm:map2_endpoint_Gprime</title>
<path fill="none" stroke="#64748b" d="M1776.72,-289.01C1813.82,-278.5 1863.43,-264.44 1907.25,-252 1989.83,-228.56 2084.66,-201.58 2148.1,-183.53"/>
<polygon fill="#64748b" stroke="#64748b" points="2148.67,-187.01 2157.33,-180.91 2146.75,-180.28 2148.67,-187.01"/>
</g>
<!-- def:map2&#45;&gt;def:gg5_iet -->
<g id="edge102" class="edge">
<title>def:map2&#45;&gt;def:gg5_iet</title>
<path fill="none" stroke="#64748b" d="M1720.25,-287.7C1720.25,-280.41 1720.25,-271.73 1720.25,-263.54"/>
<polygon fill="#64748b" stroke="#64748b" points="1723.75,-263.62 1720.25,-253.62 1716.75,-263.62 1723.75,-263.62"/>
</g>
<!-- def:map3&#45;&gt;thm:map3_endpoint_Gprime -->
<g id="edge94" class="edge">
<title>def:map3&#45;&gt;thm:map3_endpoint_Gprime</title>
<path fill="none" stroke="#64748b" d="M1389.84,-289.53C1392.67,-288.97 1395.49,-288.45 1398.25,-288 1630.82,-250.02 1698.93,-310.34 1927.25,-252 1964.24,-242.55 1968.54,-226.5 2005.25,-216 2125.35,-181.65 2163.57,-201.59 2289.84,-180.28"/>
<polygon fill="#64748b" stroke="#64748b" points="2290.38,-183.74 2299.62,-178.57 2289.17,-176.85 2290.38,-183.74"/>
</g>
<!-- def:map3&#45;&gt;thm:map3_endpoint_E -->
<g id="edge97" class="edge">
<title>def:map3&#45;&gt;thm:map3_endpoint_E</title>
<path fill="none" stroke="#64748b" d="M1389.84,-289.56C1392.68,-288.99 1395.49,-288.46 1398.25,-288 1601.79,-253.75 1660.41,-299.58 1861.25,-252 1924.27,-237.07 1992.79,-206.53 2035.86,-185.42"/>
<polygon fill="#64748b" stroke="#64748b" points="2037.21,-188.66 2044.62,-181.08 2034.1,-182.38 2037.21,-188.66"/>
</g>
<!-- def:map3&#45;&gt;def:gg5_iet -->
<g id="edge104" class="edge">
<title>def:map3&#45;&gt;def:gg5_iet</title>
<path fill="none" stroke="#64748b" d="M1389.88,-289.79C1392.71,-289.16 1395.51,-288.56 1398.25,-288 1506.97,-265.93 1536.18,-272.28 1645.25,-252 1645.93,-251.87 1646.61,-251.75 1647.29,-251.62"/>
<polygon fill="#64748b" stroke="#64748b" points="1647.91,-255.06 1657.04,-249.69 1646.55,-248.19 1647.91,-255.06"/>
</g>
<!-- ax:map1_z1&#45;&gt;thm:map1_endpoint_Eprime -->
<g id="edge81" class="edge">
<title>ax:map1_z1&#45;&gt;thm:map1_endpoint_Eprime</title>
<path fill="none" stroke="#64748b" d="M997.27,-217.19C999.96,-216.77 1002.62,-216.38 1005.25,-216 1153.91,-194.62 1191.94,-196.19 1341.25,-180 1367.98,-177.1 1397.29,-173.9 1423.16,-171.05"/>
<polygon fill="#64748b" stroke="#64748b" points="1423.34,-174.56 1432.9,-169.98 1422.58,-167.6 1423.34,-174.56"/>
</g>
<!-- ax:map1_z1&#45;&gt;thm:map1_endpoint_Fprime -->
<g id="edge87" class="edge">
<title>ax:map1_z1&#45;&gt;thm:map1_endpoint_Fprime</title>
<path fill="none" stroke="#64748b" d="M997.02,-216.32C1058.47,-204.37 1140.32,-188.46 1198.56,-177.13"/>
<polygon fill="#64748b" stroke="#64748b" points="1198.88,-180.64 1208.03,-175.29 1197.54,-173.77 1198.88,-180.64"/>
</g>
<!-- ax:map1_z2&#45;&gt;thm:map1_endpoint_Eprime -->
<g id="edge80" class="edge">
<title>ax:map1_z2&#45;&gt;thm:map1_endpoint_Eprime</title>
<path fill="none" stroke="#64748b" d="M1512.06,-215.7C1509.82,-208.24 1507.15,-199.32 1504.64,-190.97"/>
<polygon fill="#64748b" stroke="#64748b" points="1508.04,-190.13 1501.82,-181.55 1501.34,-192.14 1508.04,-190.13"/>
</g>
<!-- ax:map1_z2&#45;&gt;thm:map1_endpoint_Fprime -->
<g id="edge86" class="edge">
<title>ax:map1_z2&#45;&gt;thm:map1_endpoint_Fprime</title>
<path fill="none" stroke="#64748b" d="M1455.81,-215.52C1421.63,-205.79 1378.91,-193.64 1343.18,-183.47"/>
<polygon fill="#64748b" stroke="#64748b" points="1344.37,-180.17 1333.79,-180.8 1342.45,-186.9 1344.37,-180.17"/>
</g>
<!-- ax:map1_z3&#45;&gt;thm:map1_endpoint_Eprime -->
<g id="edge78" class="edge">
<title>ax:map1_z3&#45;&gt;thm:map1_endpoint_Eprime</title>
<path fill="none" stroke="#64748b" d="M1370.21,-215.52C1392.54,-206.21 1420.22,-194.68 1443.95,-184.79"/>
<polygon fill="#64748b" stroke="#64748b" points="1445.25,-188.04 1453.14,-180.96 1442.56,-181.58 1445.25,-188.04"/>
</g>
<!-- ax:map1_z3&#45;&gt;thm:map1_endpoint_Fprime -->
<g id="edge85" class="edge">
<title>ax:map1_z3&#45;&gt;thm:map1_endpoint_Fprime</title>
<path fill="none" stroke="#64748b" d="M1314.16,-215.7C1307.6,-207.64 1299.66,-197.89 1292.41,-188.98"/>
<polygon fill="#64748b" stroke="#64748b" points="1295.16,-186.82 1286.13,-181.28 1289.73,-191.24 1295.16,-186.82"/>
</g>
<!-- ax:map1_z4&#45;&gt;thm:map1_endpoint_Eprime -->
<g id="edge77" class="edge">
<title>ax:map1_z4&#45;&gt;thm:map1_endpoint_Eprime</title>
<path fill="none" stroke="#64748b" d="M1186.18,-217.81C1256.92,-205.31 1356.13,-187.77 1423.12,-175.93"/>
<polygon fill="#64748b" stroke="#64748b" points="1423.68,-179.38 1432.92,-174.19 1422.47,-172.49 1423.68,-179.38"/>
</g>
<!-- ax:map1_z4&#45;&gt;thm:map1_endpoint_Fprime -->
<g id="edge84" class="edge">
<title>ax:map1_z4&#45;&gt;thm:map1_endpoint_Fprime</title>
<path fill="none" stroke="#64748b" d="M1142.96,-215.52C1165.79,-206.17 1194.12,-194.57 1218.34,-184.66"/>
<polygon fill="#64748b" stroke="#64748b" points="1219.46,-187.98 1227.39,-180.96 1216.81,-181.5 1219.46,-187.98"/>
</g>
<!-- def:iet_lengths -->
<g id="node48" class="node">
<title>def:iet_lengths</title>
<path fill="#fde047" stroke="black" d="M766.62,-324C766.62,-324 701.88,-324 701.88,-324 695.88,-324 689.88,-318 689.88,-312 689.88,-312 689.88,-300 689.88,-300 689.88,-294 695.88,-288 701.88,-288 701.88,-288 766.62,-288 766.62,-288 772.62,-288 778.62,-294 778.62,-300 778.62,-300 778.62,-312 778.62,-312 778.62,-318 772.62,-324 766.62,-324"/>
<text xml:space="preserve" text-anchor="middle" x="734.25" y="-300.57" font-family="Arial" font-size="14.00">IET Lengths</text>
</g>
<!-- lem:lengths_sum -->
<g id="node49" class="node">
<title>lem:lengths_sum</title>
<path fill="#86efac" stroke="black" d="M630.88,-252C630.88,-252 513.62,-252 513.62,-252 507.62,-252 501.62,-246 501.62,-240 501.62,-240 501.62,-228 501.62,-228 501.62,-222 507.62,-216 513.62,-216 513.62,-216 630.88,-216 630.88,-216 636.88,-216 642.88,-222 642.88,-228 642.88,-228 642.88,-240 642.88,-240 642.88,-246 636.88,-252 630.88,-252"/>
<text xml:space="preserve" text-anchor="middle" x="572.25" y="-228.57" font-family="Arial" font-size="14.00">Lengths Sum to One</text>
</g>
<!-- def:iet_lengths&#45;&gt;lem:lengths_sum -->
<g id="edge100" class="edge">
<title>def:iet_lengths&#45;&gt;lem:lengths_sum</title>
<path fill="none" stroke="#64748b" d="M693.79,-287.52C672.35,-278.25 645.8,-266.78 623,-256.93"/>
<polygon fill="#64748b" stroke="#64748b" points="624.43,-253.74 613.87,-252.98 621.66,-260.16 624.43,-253.74"/>
</g>
<!-- lem:length_golden -->
<g id="node50" class="node">
<title>lem:length_golden</title>
<path fill="#86efac" stroke="black" d="M795.88,-252C795.88,-252 672.62,-252 672.62,-252 666.62,-252 660.62,-246 660.62,-240 660.62,-240 660.62,-228 660.62,-228 660.62,-222 666.62,-216 672.62,-216 672.62,-216 795.88,-216 795.88,-216 801.88,-216 807.88,-222 807.88,-228 807.88,-228 807.88,-240 807.88,-240 807.88,-246 801.88,-252 795.88,-252"/>
<text xml:space="preserve" text-anchor="middle" x="734.25" y="-228.57" font-family="Arial" font-size="14.00">Length Golden Ratios</text>
</g>
<!-- def:iet_lengths&#45;&gt;lem:length_golden -->
<g id="edge101" class="edge">
<title>def:iet_lengths&#45;&gt;lem:length_golden</title>
<path fill="none" stroke="#64748b" d="M734.25,-287.7C734.25,-280.41 734.25,-271.73 734.25,-263.54"/>
<polygon fill="#64748b" stroke="#64748b" points="737.75,-263.62 734.25,-253.62 730.75,-263.62 737.75,-263.62"/>
</g>
<!-- def:iet_lengths&#45;&gt;def:gg5_iet -->
<g id="edge103" class="edge">
<title>def:iet_lengths&#45;&gt;def:gg5_iet</title>
<path fill="none" stroke="#64748b" d="M779.05,-302.55C946.35,-293.36 1529.18,-261.02 1612.25,-252 1623.69,-250.76 1635.77,-249.15 1647.54,-247.42"/>
<polygon fill="#64748b" stroke="#64748b" points="1647.84,-250.91 1657.21,-245.96 1646.8,-243.99 1647.84,-250.91"/>
</g>
<!-- lem:iet_rotation_irrational -->
<g id="node52" class="node">
<title>lem:iet_rotation_irrational</title>
<path fill="#86efac" stroke="black" d="M987.88,-180C987.88,-180 864.62,-180 864.62,-180 858.62,-180 852.62,-174 852.62,-168 852.62,-168 852.62,-156 852.62,-156 852.62,-150 858.62,-144 864.62,-144 864.62,-144 987.88,-144 987.88,-144 993.88,-144 999.88,-150 999.88,-156 999.88,-156 999.88,-168 999.88,-168 999.88,-174 993.88,-180 987.88,-180"/>
<text xml:space="preserve" text-anchor="middle" x="926.25" y="-156.57" font-family="Arial" font-size="14.00">IET Rotation Irrational</text>
</g>
<!-- lem:length_golden&#45;&gt;lem:iet_rotation_irrational -->
<g id="edge106" class="edge">
<title>lem:length_golden&#45;&gt;lem:iet_rotation_irrational</title>
<path fill="none" stroke="#64748b" d="M782.2,-215.52C808.19,-206.04 840.5,-194.26 867.93,-184.26"/>
<polygon fill="#64748b" stroke="#64748b" points="868.96,-187.61 877.15,-180.9 866.56,-181.04 868.96,-187.61"/>
</g>
<!-- def:gg5_iet&#45;&gt;lem:iet_rotation_irrational -->
<g id="edge107" class="edge">
<title>def:gg5_iet&#45;&gt;lem:iet_rotation_irrational</title>
<path fill="none" stroke="#64748b" d="M1658.68,-222.45C1643.53,-220.09 1627.33,-217.77 1612.25,-216 1498.24,-202.64 1168.77,-179.47 1011.61,-168.75"/>
<polygon fill="#64748b" stroke="#64748b" points="1011.87,-165.26 1001.66,-168.07 1011.39,-172.24 1011.87,-165.26"/>
</g>
<!-- thm:iet_infinite_orbit -->
<g id="node60" class="node">
<title>thm:iet_infinite_orbit</title>
<path fill="#93c5fd" stroke="black" d="M985.25,-108C985.25,-108 867.25,-108 867.25,-108 861.25,-108 855.25,-102 855.25,-96 855.25,-96 855.25,-84 855.25,-84 855.25,-78 861.25,-72 867.25,-72 867.25,-72 985.25,-72 985.25,-72 991.25,-72 997.25,-78 997.25,-84 997.25,-84 997.25,-96 997.25,-96 997.25,-102 991.25,-108 985.25,-108"/>
<text xml:space="preserve" text-anchor="middle" x="926.25" y="-84.58" font-family="Arial" font-size="14.00">IET Has Infinite Orbit</text>
</g>
<!-- def:gg5_iet&#45;&gt;thm:iet_infinite_orbit -->
<g id="edge120" class="edge">
<title>def:gg5_iet&#45;&gt;thm:iet_infinite_orbit</title>
<path fill="none" stroke="#64748b" d="M1722.13,-215.57C1723.26,-195.07 1721.54,-161.6 1701.25,-144 1649.86,-99.44 1198.12,-92.2 1008.98,-91.13"/>
<polygon fill="#64748b" stroke="#64748b" points="1009.25,-87.63 999.23,-91.08 1009.21,-94.63 1009.25,-87.63"/>
</g>
<!-- lem:iet_rotation_irrational&#45;&gt;thm:iet_infinite_orbit -->
<g id="edge117" class="edge">
<title>lem:iet_rotation_irrational&#45;&gt;thm:iet_infinite_orbit</title>
<path fill="none" stroke="#64748b" d="M926.25,-143.7C926.25,-136.41 926.25,-127.73 926.25,-119.54"/>
<polygon fill="#64748b" stroke="#64748b" points="929.75,-119.62 926.25,-109.62 922.75,-119.62 929.75,-119.62"/>
</g>
<!-- def:orbit_set -->
<g id="node53" class="node">
<title>def:orbit_set</title>
<path fill="#fde047" stroke="black" d="M402.25,-396C402.25,-396 356.25,-396 356.25,-396 350.25,-396 344.25,-390 344.25,-384 344.25,-384 344.25,-372 344.25,-372 344.25,-366 350.25,-360 356.25,-360 356.25,-360 402.25,-360 402.25,-360 408.25,-360 414.25,-366 414.25,-372 414.25,-372 414.25,-384 414.25,-384 414.25,-390 408.25,-396 402.25,-396"/>
<text xml:space="preserve" text-anchor="middle" x="379.25" y="-372.57" font-family="Arial" font-size="14.00">Orbit Set</text>
</g>
<!-- def:periodic -->
<g id="node54" class="node">
<title>def:periodic</title>
<path fill="#fde047" stroke="black" d="M211.62,-324C211.62,-324 170.88,-324 170.88,-324 164.88,-324 158.88,-318 158.88,-312 158.88,-312 158.88,-300 158.88,-300 158.88,-294 164.88,-288 170.88,-288 170.88,-288 211.62,-288 211.62,-288 217.62,-288 223.62,-294 223.62,-300 223.62,-300 223.62,-312 223.62,-312 223.62,-318 217.62,-324 211.62,-324"/>
<text xml:space="preserve" text-anchor="middle" x="191.25" y="-300.57" font-family="Arial" font-size="14.00">Periodic</text>
</g>
<!-- def:orbit_set&#45;&gt;def:periodic -->
<g id="edge108" class="edge">
<title>def:orbit_set&#45;&gt;def:periodic</title>
<path fill="none" stroke="#64748b" d="M344.03,-364.82C316.42,-355.16 276.81,-341.06 234.41,-324.76"/>
<polygon fill="#64748b" stroke="#64748b" points="235.87,-321.57 225.28,-321.23 233.35,-328.1 235.87,-321.57"/>
</g>
<!-- lem:finite_orbit_collision -->
<g id="node55" class="node">
<title>lem:finite_orbit_collision</title>
<path fill="#86efac" stroke="black" d="M394.88,-324C394.88,-324 253.62,-324 253.62,-324 247.62,-324 241.62,-318 241.62,-312 241.62,-312 241.62,-300 241.62,-300 241.62,-294 247.62,-288 253.62,-288 253.62,-288 394.88,-288 394.88,-288 400.88,-288 406.88,-294 406.88,-300 406.88,-300 406.88,-312 406.88,-312 406.88,-318 400.88,-324 394.88,-324"/>
<text xml:space="preserve" text-anchor="middle" x="324.25" y="-300.57" font-family="Arial" font-size="14.00">Finite Orbit Has Collision</text>
</g>
<!-- def:orbit_set&#45;&gt;lem:finite_orbit_collision -->
<g id="edge109" class="edge">
<title>def:orbit_set&#45;&gt;lem:finite_orbit_collision</title>
<path fill="none" stroke="#64748b" d="M365.65,-359.7C359.33,-351.64 351.67,-341.89 344.66,-332.98"/>
<polygon fill="#64748b" stroke="#64748b" points="347.55,-331 338.62,-325.29 342.05,-335.32 347.55,-331"/>
</g>
<!-- lem:finite_orbit_periodic -->
<g id="node56" class="node">
<title>lem:finite_orbit_periodic</title>
<path fill="#86efac" stroke="black" d="M433.5,-252C433.5,-252 275,-252 275,-252 269,-252 263,-246 263,-240 263,-240 263,-228 263,-228 263,-222 269,-216 275,-216 275,-216 433.5,-216 433.5,-216 439.5,-216 445.5,-222 445.5,-228 445.5,-228 445.5,-240 445.5,-240 445.5,-246 439.5,-252 433.5,-252"/>
<text xml:space="preserve" text-anchor="middle" x="354.25" y="-228.57" font-family="Arial" font-size="14.00">Finite Orbit Implies Periodic</text>
</g>
<!-- def:orbit_set&#45;&gt;lem:finite_orbit_periodic -->
<g id="edge110" class="edge">
<title>def:orbit_set&#45;&gt;lem:finite_orbit_periodic</title>
<path fill="none" stroke="#64748b" d="M395.14,-359.77C409.76,-341.72 427.59,-312.62 416.25,-288 411.13,-276.89 402.41,-267.24 393.09,-259.33"/>
<polygon fill="#64748b" stroke="#64748b" points="395.31,-256.63 385.27,-253.23 391,-262.14 395.31,-256.63"/>
</g>
<!-- lem:no_periodic_infinite -->
<g id="node59" class="node">
<title>lem:no_periodic_infinite</title>
<path fill="#86efac" stroke="black" d="M489.5,-180C489.5,-180 337,-180 337,-180 331,-180 325,-174 325,-168 325,-168 325,-156 325,-156 325,-150 331,-144 337,-144 337,-144 489.5,-144 489.5,-144 495.5,-144 501.5,-150 501.5,-156 501.5,-156 501.5,-168 501.5,-168 501.5,-174 495.5,-180 489.5,-180"/>
<text xml:space="preserve" text-anchor="middle" x="413.25" y="-156.57" font-family="Arial" font-size="14.00">No Periodic Implies Infinite</text>
</g>
<!-- def:orbit_set&#45;&gt;lem:no_periodic_infinite -->
<g id="edge114" class="edge">
<title>def:orbit_set&#45;&gt;lem:no_periodic_infinite</title>
<path fill="none" stroke="#64748b" d="M401.16,-359.59C411.86,-350.08 424.14,-337.5 432.25,-324 449.48,-295.32 449.31,-285.09 454.25,-252 456.61,-236.18 459.42,-231.14 454.25,-216 450.95,-206.35 445.1,-197.09 438.84,-189.09"/>
<polygon fill="#64748b" stroke="#64748b" points="441.53,-186.85 432.4,-181.48 436.19,-191.37 441.53,-186.85"/>
</g>
<!-- def:periodic&#45;&gt;lem:finite_orbit_periodic -->
<g id="edge112" class="edge">
<title>def:periodic&#45;&gt;lem:finite_orbit_periodic</title>
<path fill="none" stroke="#64748b" d="M223.84,-291C246.54,-281.25 277.28,-268.06 303.21,-256.92"/>
<polygon fill="#64748b" stroke="#64748b" points="304.42,-260.21 312.23,-253.05 301.66,-253.78 304.42,-260.21"/>
</g>
<!-- ax:keane -->
<g id="node57" class="node">
<title>ax:keane</title>
<path fill="#fca5a5" stroke="black" d="M194.88,-252C194.88,-252 95.62,-252 95.62,-252 89.62,-252 83.62,-246 83.62,-240 83.62,-240 83.62,-228 83.62,-228 83.62,-222 89.62,-216 95.62,-216 95.62,-216 194.88,-216 194.88,-216 200.88,-216 206.88,-222 206.88,-228 206.88,-228 206.88,-240 206.88,-240 206.88,-246 200.88,-252 194.88,-252"/>
<text xml:space="preserve" text-anchor="middle" x="145.25" y="-228.57" font-family="Arial" font-size="14.00">Keane&#39;s Theorem</text>
</g>
<!-- def:periodic&#45;&gt;ax:keane -->
<g id="edge113" class="edge">
<title>def:periodic&#45;&gt;ax:keane</title>
<path fill="none" stroke="#64748b" d="M179.88,-287.7C174.7,-279.81 168.45,-270.3 162.69,-261.55"/>
<polygon fill="#64748b" stroke="#64748b" points="165.74,-259.8 157.32,-253.37 159.89,-263.65 165.74,-259.8"/>
</g>
<!-- def:periodic&#45;&gt;lem:no_periodic_infinite -->
<g id="edge116" class="edge">
<title>def:periodic&#45;&gt;lem:no_periodic_infinite</title>
<path fill="none" stroke="#64748b" d="M199.23,-287.75C209.33,-267.74 228.56,-235.06 254.25,-216 272.93,-202.14 295.44,-191.77 317.57,-184.06"/>
<polygon fill="#64748b" stroke="#64748b" points="318.55,-187.43 326.95,-180.96 316.36,-180.78 318.55,-187.43"/>
</g>
<!-- lem:finite_orbit_collision&#45;&gt;lem:finite_orbit_periodic -->
<g id="edge111" class="edge">
<title>lem:finite_orbit_collision&#45;&gt;lem:finite_orbit_periodic</title>
<path fill="none" stroke="#64748b" d="M331.67,-287.7C334.9,-280.15 338.77,-271.12 342.39,-262.68"/>
<polygon fill="#64748b" stroke="#64748b" points="345.6,-264.07 346.32,-253.5 339.17,-261.31 345.6,-264.07"/>
</g>
<!-- lem:finite_orbit_periodic&#45;&gt;lem:no_periodic_infinite -->
<g id="edge115" class="edge">
<title>lem:finite_orbit_periodic&#45;&gt;lem:no_periodic_infinite</title>
<path fill="none" stroke="#64748b" d="M368.83,-215.7C375.69,-207.56 384.01,-197.69 391.59,-188.7"/>
<polygon fill="#64748b" stroke="#64748b" points="394.09,-191.16 397.86,-181.26 388.74,-186.65 394.09,-191.16"/>
</g>
<!-- ax:keane&#45;&gt;thm:iet_infinite_orbit -->
<g id="edge119" class="edge">
<title>ax:keane&#45;&gt;thm:iet_infinite_orbit</title>
<path fill="none" stroke="#64748b" d="M170.83,-215.55C203.13,-194.53 261.14,-160.04 316.25,-144 412.95,-115.85 700.72,-100.33 843.71,-94.17"/>
<polygon fill="#64748b" stroke="#64748b" points="843.65,-97.68 853.49,-93.76 843.35,-90.68 843.65,-97.68"/>
</g>
<!-- ax:iet_maps_to_self -->
<g id="node58" class="node">
<title>ax:iet_maps_to_self</title>
<path fill="#fca5a5" stroke="black" d="M1680.5,-180C1680.5,-180 1588,-180 1588,-180 1582,-180 1576,-174 1576,-168 1576,-168 1576,-156 1576,-156 1576,-150 1582,-144 1588,-144 1588,-144 1680.5,-144 1680.5,-144 1686.5,-144 1692.5,-150 1692.5,-156 1692.5,-156 1692.5,-168 1692.5,-168 1692.5,-174 1686.5,-180 1680.5,-180"/>
<text xml:space="preserve" text-anchor="middle" x="1634.25" y="-156.57" font-family="Arial" font-size="14.00">IET Maps to Self</text>
</g>
<!-- ax:iet_maps_to_self&#45;&gt;thm:iet_infinite_orbit -->
<g id="edge118" class="edge">
<title>ax:iet_maps_to_self&#45;&gt;thm:iet_infinite_orbit</title>
<path fill="none" stroke="#64748b" d="M1575.54,-145.52C1572.75,-144.96 1569.97,-144.45 1567.25,-144 1368.53,-110.81 1131.51,-98.08 1008.89,-93.45"/>
<polygon fill="#64748b" stroke="#64748b" points="1009.02,-89.95 998.9,-93.08 1008.77,-96.95 1009.02,-89.95"/>
</g>
<!-- lem:no_periodic_infinite&#45;&gt;thm:iet_infinite_orbit -->
<g id="edge121" class="edge">
<title>lem:no_periodic_infinite&#45;&gt;thm:iet_infinite_orbit</title>
<path fill="none" stroke="#64748b" d="M501.73,-148.93C597.85,-135.81 750.19,-115.02 843.86,-102.24"/>
<polygon fill="#64748b" stroke="#64748b" points="844.05,-105.75 853.48,-100.93 843.1,-98.81 844.05,-105.75"/>
</g>
<!-- thm:iet_infinite_orbit&#45;&gt;thm:main -->
<g id="edge1" class="edge">
<title>thm:iet_infinite_orbit&#45;&gt;thm:main</title>
<path fill="none" stroke="#64748b" d="M926.25,-71.7C926.25,-64.41 926.25,-55.73 926.25,-47.54"/>
<polygon fill="#64748b" stroke="#64748b" points="929.75,-47.62 926.25,-37.62 922.75,-47.62 929.75,-47.62"/>
</g>
<!-- legend_theorem -->
<g id="node61" class="node">
<title>legend_theorem</title>
<path fill="#93c5fd" stroke="black" d="M3236.62,-468C3236.62,-468 3189.88,-468 3189.88,-468 3183.88,-468 3177.88,-462 3177.88,-456 3177.88,-456 3177.88,-444 3177.88,-444 3177.88,-438 3183.88,-432 3189.88,-432 3189.88,-432 3236.62,-432 3236.62,-432 3242.62,-432 3248.62,-438 3248.62,-444 3248.62,-444 3248.62,-456 3248.62,-456 3248.62,-462 3242.62,-468 3236.62,-468"/>
<text xml:space="preserve" text-anchor="middle" x="3213.25" y="-444.57" font-family="Arial" font-size="14.00">Theorem</text>
</g>
<!-- legend_lemma -->
<g id="node62" class="node">
<title>legend_lemma</title>
<path fill="#86efac" stroke="black" d="M3317.5,-468C3317.5,-468 3279,-468 3279,-468 3273,-468 3267,-462 3267,-456 3267,-456 3267,-444 3267,-444 3267,-438 3273,-432 3279,-432 3279,-432 3317.5,-432 3317.5,-432 3323.5,-432 3329.5,-438 3329.5,-444 3329.5,-444 3329.5,-456 3329.5,-456 3329.5,-462 3323.5,-468 3317.5,-468"/>
<text xml:space="preserve" text-anchor="middle" x="3298.25" y="-444.57" font-family="Arial" font-size="14.00">Lemma</text>
</g>
<!-- legend_definition -->
<g id="node63" class="node">
<title>legend_definition</title>
<path fill="#fde047" stroke="black" d="M3407.38,-468C3407.38,-468 3359.12,-468 3359.12,-468 3353.12,-468 3347.12,-462 3347.12,-456 3347.12,-456 3347.12,-444 3347.12,-444 3347.12,-438 3353.12,-432 3359.12,-432 3359.12,-432 3407.38,-432 3407.38,-432 3413.38,-432 3419.38,-438 3419.38,-444 3419.38,-444 3419.38,-456 3419.38,-456 3419.38,-462 3413.38,-468 3407.38,-468"/>
<text xml:space="preserve" text-anchor="middle" x="3383.25" y="-444.57" font-family="Arial" font-size="14.00">Definition</text>
</g>
<!-- legend_axiom -->
<g id="node64" class="node">
<title>legend_axiom</title>
<path fill="#fca5a5" stroke="black" d="M3479.38,-468C3479.38,-468 3449.12,-468 3449.12,-468 3443.12,-468 3437.12,-462 3437.12,-456 3437.12,-456 3437.12,-444 3437.12,-444 3437.12,-438 3443.12,-432 3449.12,-432 3449.12,-432 3479.38,-432 3479.38,-432 3485.38,-432 3491.38,-438 3491.38,-444 3491.38,-444 3491.38,-456 3491.38,-456 3491.38,-462 3485.38,-468 3479.38,-468"/>
<text xml:space="preserve" text-anchor="middle" x="3464.25" y="-444.57" font-family="Arial" font-size="14.00">Axiom</text>
</g>
</g>
</svg>
